<svg width="343" height="329" viewBox="0 0 343 329" fill="none" xmlns="http://www.w3.org/2000/svg">
<path fill-rule="evenodd" clip-rule="evenodd" d="M74.5417 186.819C74.2769 186.73 73.9951 186.681 73.7006 186.681C73.5561 186.681 73.4134 186.693 73.2752 186.716C73.5678 186.038 73.7303 185.29 73.7303 184.507C73.7303 182.942 73.084 181.527 72.0419 180.509C72.7232 180.722 73.3326 181.094 73.8254 181.583C74.6216 182.371 75.1144 183.461 75.1144 184.665C75.1144 185.448 74.907 186.183 74.5417 186.819ZM64.4804 177.705C64.3386 177.68 64.1923 177.669 64.0433 177.669L63.9688 177.669C63.9805 177.466 63.9876 177.263 63.9876 177.058C63.9876 172.618 61.092 168.847 57.0689 167.494C59.0364 167.728 60.8002 168.618 62.1296 169.934C63.6914 171.48 64.6572 173.616 64.6572 175.976C64.6572 176.568 64.5971 177.146 64.4804 177.705ZM89.2643 190.917C88.0597 190.917 86.9045 191.131 85.8381 191.524C85.3552 190.998 84.6587 190.668 83.884 190.668C83.5232 190.668 83.1803 190.739 82.8679 190.869C82.6947 188.622 80.7971 186.851 78.4831 186.851C77.4778 186.851 76.5515 187.185 75.8118 187.746C75.6503 187.527 75.4555 187.334 75.2338 187.175C75.6556 186.432 75.8962 185.576 75.8962 184.665C75.8962 183.247 75.3154 181.964 74.3783 181.036C73.4394 180.107 72.1442 179.532 70.7116 179.532H70.6946C69.9056 179.121 69.0089 178.888 68.0556 178.888C67.4712 178.888 66.9093 178.976 66.378 179.138C66.1374 178.628 65.7308 178.211 65.2272 177.953C65.3664 177.315 65.4391 176.654 65.4391 175.976C65.4391 173.403 64.3862 171.072 62.6825 169.387C60.9806 167.702 58.628 166.658 56.0285 166.658C55.2018 166.658 54.4003 166.763 53.6355 166.962C48.0739 167.044 43.5895 171.532 43.5895 177.058C43.5895 177.135 43.5913 177.214 43.5931 177.291C43.1012 177.167 42.5851 177.102 42.0537 177.102C40.9981 177.102 40.0053 177.361 39.1327 177.818C37.6463 175.81 35.247 174.506 32.5397 174.506C28.0279 174.506 24.3705 178.126 24.3705 182.593C24.3705 183.471 24.5118 184.318 24.773 185.108C24.6917 185.104 24.6089 185.101 24.5262 185.101C22.3042 185.101 20.5034 186.885 20.5034 189.085C20.5034 189.343 20.5287 189.595 20.5756 189.839C20.5476 189.839 20.5195 189.837 20.4912 189.837C19.2356 189.837 18.2135 190.825 18.1732 192.058C17.8246 191.991 17.4641 191.958 17.0968 191.958C15.6459 191.958 14.2889 192.457 13.3121 193.371C10.6984 195.819 13.5512 196.455 16.3011 196.455H19.8867H22.7008H80.3851H84.8884H92.2856C95.1517 196.455 99.2457 196.921 96.4021 193.953C94.6086 192.083 92.0747 190.917 89.2643 190.917Z" fill="white"/>
<path fill-rule="evenodd" clip-rule="evenodd" d="M256.822 253.16C257.087 253.072 257.369 253.023 257.663 253.023C257.808 253.023 257.949 253.035 258.089 253.057C257.795 252.379 257.633 251.632 257.633 250.849C257.633 249.284 258.28 247.869 259.322 246.851C258.641 247.064 258.032 247.437 257.539 247.924C256.742 248.713 256.248 249.803 256.248 251.006C256.248 251.79 256.458 252.525 256.822 253.16ZM266.882 244.045C267.026 244.021 267.171 244.009 267.32 244.009L267.396 244.011C267.383 243.808 267.376 243.605 267.376 243.399C267.376 238.959 270.272 235.188 274.295 233.836C272.327 234.07 270.564 234.959 269.234 236.276C267.671 237.822 266.706 239.958 266.706 242.317C266.706 242.909 266.767 243.487 266.882 244.045ZM242.099 257.258C243.304 257.258 244.459 257.473 245.526 257.866C246.008 257.341 246.705 257.009 247.48 257.009C247.84 257.009 248.182 257.081 248.497 257.212C248.669 254.963 250.566 253.192 252.881 253.192C253.886 253.192 254.812 253.527 255.552 254.087C255.713 253.869 255.908 253.676 256.13 253.516C255.708 252.774 255.467 251.918 255.467 251.006C255.467 249.588 256.048 248.305 256.986 247.377C257.924 246.448 259.22 245.873 260.652 245.873H260.669C261.457 245.463 262.356 245.23 263.308 245.23C263.892 245.23 264.455 245.317 264.986 245.48C265.227 244.97 265.633 244.552 266.136 244.294C265.996 243.657 265.924 242.995 265.924 242.317C265.924 239.745 266.978 237.415 268.681 235.729C270.383 234.043 272.736 233 275.335 233C276.162 233 276.964 233.106 277.728 233.304C283.29 233.385 287.774 237.874 287.774 243.399C287.774 243.477 287.772 243.555 287.771 243.633C288.263 243.51 288.779 243.444 289.31 243.444C290.365 243.444 291.359 243.702 292.231 244.159C293.718 242.152 296.117 240.847 298.824 240.847C303.336 240.847 306.994 244.468 306.994 248.935C306.994 249.813 306.851 250.659 306.591 251.45C306.673 251.446 306.754 251.443 306.838 251.443C309.06 251.443 310.861 253.226 310.861 255.426C310.861 255.684 310.836 255.936 310.789 256.181C310.816 256.181 310.845 256.179 310.872 256.179C312.129 256.179 313.15 257.166 313.191 258.4C313.54 258.333 313.9 258.299 314.268 258.299C315.719 258.299 317.075 258.799 318.052 259.714C320.665 262.16 317.812 262.797 315.063 262.797H311.478H308.663H250.978H246.475H239.078C236.213 262.797 232.118 263.261 234.961 260.293C236.755 258.424 239.289 257.258 242.099 257.258Z" fill="white"/>
<path fill-rule="evenodd" clip-rule="evenodd" d="M80.0723 40.9281C80.3389 40.8357 80.6246 40.7872 80.922 40.7872C81.0681 40.7872 81.2122 40.7982 81.3519 40.822C81.0554 40.124 80.8921 39.3548 80.8921 38.548C80.8921 36.9371 81.5442 35.4808 82.597 34.4326C81.9096 34.6521 81.2939 35.0354 80.7951 35.5375C79.9907 36.3498 79.4937 37.4722 79.4937 38.7108C79.4937 39.5176 79.7032 40.2741 80.0723 40.9281ZM90.2374 31.5456C90.3807 31.5209 90.5276 31.5081 90.6781 31.5081L90.7543 31.509C90.7416 31.3005 90.7344 31.091 90.7344 30.8797C90.7344 26.3097 93.6599 22.4275 97.7245 21.0353C95.7375 21.2768 93.9556 22.1915 92.6116 23.5472C91.0345 25.1388 90.0578 27.3369 90.0578 29.7656C90.0578 30.3757 90.1195 30.9703 90.2374 31.5456ZM65.1979 45.1469C66.4158 45.1469 67.582 45.3683 68.6594 45.7717C69.1473 45.2301 69.8501 44.8907 70.6327 44.8907C70.9964 44.8907 71.3446 44.9639 71.6611 45.0975C71.8343 42.7832 73.7514 40.9601 76.0903 40.9601C77.1059 40.9601 78.0409 41.3041 78.7891 41.8831C78.9523 41.6572 79.1491 41.4587 79.3722 41.294C78.946 40.5302 78.7029 39.6475 78.7029 38.7108C78.7029 37.2518 79.2897 35.93 80.2364 34.9741C81.185 34.0191 82.4955 33.4273 83.941 33.4273H83.9582C84.7554 33.0037 85.6622 32.7641 86.6253 32.7641C87.2148 32.7641 87.7834 32.8537 88.3194 33.0211C88.5624 32.497 88.9732 32.067 89.4829 31.8008C89.3414 31.145 89.267 30.4635 89.267 29.7656C89.267 27.1174 90.3326 24.7189 92.0529 22.9837C93.7733 21.2493 96.1502 20.1745 98.7756 20.1745C99.6117 20.1745 100.422 20.2843 101.193 20.4883C106.813 20.5715 111.344 25.1919 111.344 30.8797C111.344 30.9593 111.342 31.0398 111.34 31.1203C111.837 30.9931 112.358 30.9245 112.895 30.9245C113.961 30.9245 114.966 31.1916 115.846 31.6618C117.347 29.5954 119.771 28.2526 122.506 28.2526C127.065 28.2526 130.762 31.9801 130.762 36.5785C130.762 37.4823 130.617 38.3531 130.354 39.1682C130.436 39.1627 130.52 39.1599 130.603 39.1599C132.848 39.1599 134.668 40.9949 134.668 43.2598C134.668 43.526 134.643 43.7848 134.594 44.0373C134.622 44.0373 134.651 44.0355 134.679 44.0355C135.948 44.0355 136.981 45.0518 137.022 46.3214C137.375 46.2537 137.738 46.218 138.11 46.218C139.575 46.218 140.946 46.7321 141.932 47.6734C144.573 50.1926 141.691 50.8475 138.914 50.8475H135.291H132.448H74.1677H69.6188H62.1453C59.2497 50.8475 55.1126 51.3259 57.9865 48.2716C59.7975 46.347 62.3585 45.1469 65.1979 45.1469Z" fill="white"/>
<path fill-rule="evenodd" clip-rule="evenodd" d="M205.36 130.444C205.36 130.444 206.034 129.265 206.322 127.428C206.61 125.592 204.281 113.816 204.281 113.816C204.281 113.816 246.685 112.602 245.996 113.457C245.304 114.313 244.416 117.231 244.416 117.231C244.416 117.231 245.216 129.999 245.535 132.395C245.853 134.792 248.78 135.978 248.78 135.978L249.111 144.328L242.413 151.747C242.413 151.747 213.655 147.308 212.022 145.948C210.39 144.59 203.499 133.615 203.499 133.615L205.36 130.444Z" fill="#E7E7E7"/>
<path fill-rule="evenodd" clip-rule="evenodd" d="M206.406 126.859C206.294 123.744 204.376 113.821 204.376 113.821C204.376 113.821 246.16 112.598 245.48 113.46C244.799 114.322 243.924 117.264 243.924 117.264C243.924 117.264 244.712 130.133 245.027 132.548C245.34 134.964 248.224 136.16 248.224 136.16L248.233 136.407C234.781 142.427 218.197 139.728 206.406 126.859Z" fill="#959595"/>
<path fill-rule="evenodd" clip-rule="evenodd" d="M274.343 261.475L272.677 258.759L253.758 261.209L240.339 303.704L241.5 318.5C255.5 314 264.5 311 282.5 303L274.343 261.475Z" fill="#4A4A4A"/>
<path fill-rule="evenodd" clip-rule="evenodd" d="M278.52 263.145C278.52 263.145 239.683 262.622 236.333 262.785C233.436 262.926 216.24 171.39 208.79 139.695C207.625 134.74 242.456 148.052 242.506 148.013L252.851 139.963L261.435 154.128L282.442 199.467L278.52 263.145Z" fill="#4A4A4A"/>
<path fill-rule="evenodd" clip-rule="evenodd" d="M272.925 255.873C272.925 255.873 262.61 258.516 249.106 255.588C235.6 252.663 243.529 269.718 243.529 269.718C243.529 269.718 268.123 274.305 274.664 270.228C281.204 266.151 272.925 255.873 272.925 255.873Z" fill="#303030"/>
<path fill-rule="evenodd" clip-rule="evenodd" d="M252.091 142.694L269.788 191.472C269.788 191.472 270.72 196.156 270.632 203.641C270.543 211.127 272.195 258.651 272.195 258.651C272.623 262.844 277.511 290.821 279.5 304C282.5 303 289.5 299.5 296 296L285.1 261.885C285.759 260.685 286.004 257.045 284.216 255.665C284.138 255.607 285.937 203.378 285.937 203.378C283.687 180.065 290.795 152.941 269.203 144.144L249.111 135.958L252.091 142.694Z" fill="#7F7F7F"/>
<path fill-rule="evenodd" clip-rule="evenodd" d="M174.696 148.591L199.874 135.958C227.462 147.611 234.828 144.862 251.406 186.693C253.534 192.063 253.631 254.639 253.631 254.639C253.631 254.639 257.526 259.224 253.324 265.496C256.99 275.597 263.697 294.71 267 309.5C240.5 321 214.5 326.5 176.484 328.054L194.672 266.265C194.672 266.265 188.29 261.95 193.846 251.576L173.676 199.677L174.696 148.591Z" fill="#7F7F7F"/>
<path fill-rule="evenodd" clip-rule="evenodd" d="M177.52 209.246L173.676 199.539L173.845 191.219C178.533 193.079 187.257 196.676 187.257 196.676C187.257 196.676 198.808 212.989 186.216 209.015C181.999 207.684 179.277 208.102 177.52 209.246Z" fill="#4A4A4A"/>
<path fill-rule="evenodd" clip-rule="evenodd" d="M242.093 147.608L205.697 132.839L205.893 130.695C202.865 132.75 200.866 133.101 199.99 136.266L219.063 155.74C225.447 160.485 229.784 161.406 235.107 155.665L242.093 147.608Z" fill="white"/>
<path fill-rule="evenodd" clip-rule="evenodd" d="M188.873 86.024C188.873 86.024 184.582 82.6955 182.27 83.437C179.959 84.1777 178.134 90.3274 179.301 94.4398C180.469 98.5512 187.846 112.125 194.504 104.96C201.162 97.7971 188.873 86.024 188.873 86.024Z" fill="#E7E7E7"/>
<path fill-rule="evenodd" clip-rule="evenodd" d="M192.552 89.9352C192.875 90.1559 193.049 90.6139 192.941 90.9563C192.842 91.2631 192.548 91.3726 192.255 91.2309C192.255 91.2309 192.732 104.071 190.602 102.492C188.472 100.913 186.269 99.426 184.89 96.4278C183.512 93.4322 185.551 89.9995 184.43 89.3729C183.362 88.7768 182.642 90.2011 182.577 90.3367L182.574 90.3419L182.572 90.3445V90.3463C182.027 91.569 181.929 92.8934 181.929 92.8995C181.898 93.2836 181.594 93.4826 181.255 93.3453C180.913 93.2072 180.663 92.7848 180.696 92.4016C180.697 92.3868 181.057 87.4002 184.343 86.8849C187.482 86.393 192.538 89.9248 192.552 89.9352Z" fill="#959595"/>
<path fill-rule="evenodd" clip-rule="evenodd" d="M258.414 75.6827C258.414 75.6827 260.729 72.0804 262.743 71.9307C264.757 71.7793 268.027 75.592 268.366 78.8369C268.704 82.0826 267.095 93.8218 259.776 90.701C252.456 87.582 258.414 75.6827 258.414 75.6827Z" fill="#E7E7E7"/>
<path fill-rule="evenodd" clip-rule="evenodd" d="M257.13 79.4333C256.957 79.6994 256.965 80.0994 257.145 80.3255C257.308 80.5287 257.556 80.5214 257.731 80.3245C257.731 80.3245 261.176 90.2073 262.276 88.3627C263.375 86.5172 264.556 84.72 264.684 82.0279C264.811 79.3376 262.298 77.3535 262.938 76.5388C263.547 75.7623 264.499 76.6226 264.585 76.7056L264.589 76.7092L264.592 76.711V76.7119C265.355 77.4738 265.817 78.4472 265.819 78.4517C265.957 78.7333 266.238 78.7935 266.448 78.5857C266.658 78.3779 266.717 77.9815 266.579 77.6999C266.575 77.6898 264.836 74.0171 262.266 74.6259C259.812 75.2073 257.137 79.4214 257.13 79.4333Z" fill="#959595"/>
<path fill-rule="evenodd" clip-rule="evenodd" d="M213.477 22.0399C260.434 14.2339 260.622 54.2548 262.193 86.2625C264.642 136.091 205.885 146.796 190.577 99.3084C180.744 68.8062 166.784 31.294 213.477 22.0399Z" fill="#E7E7E7"/>
<path fill-rule="evenodd" clip-rule="evenodd" d="M185.68 85.0695C184.834 82.254 184.035 79.4295 183.324 76.614C185.933 71.7555 190.644 66.6109 190.644 66.6109L197.521 63.3018C197.521 63.3018 202.714 83.6798 187.635 85.019C186.908 85.0831 186.258 85.0984 185.68 85.0695ZM260.412 62.2776C260.854 66.0893 261.156 69.9778 261.391 73.8554C260.912 74.145 260.39 74.423 259.819 74.6838C250.296 79.055 242.843 67.6866 242.843 67.6866L240.68 62.9923C240.68 62.9923 253.478 62.5844 260.412 62.2776Z" fill="#7F7F7F"/>
<path fill-rule="evenodd" clip-rule="evenodd" d="M188.845 96.4865C187.503 92.3617 186.02 87.7642 184.766 83.5181C176.36 55.036 174.542 33.4245 213.386 25.744C252.447 19.2671 258.399 40.1271 260.617 69.7337C260.947 74.1469 261.186 78.9709 261.391 83.3024C261.391 83.3024 255.962 79.5228 255.287 70.2307C255.287 70.2307 245.6 72.0643 246.704 55.4953C247.807 38.9236 227.128 41.4879 216.613 43.3989C206.101 45.3098 185.843 50.185 192.742 65.3006C199.641 80.4172 189.929 82.1079 189.929 82.1079C192.585 91.0404 188.845 96.4865 188.845 96.4865Z" fill="#336D3D"/>
<path fill-rule="evenodd" clip-rule="evenodd" d="M197.435 62.8429C197.435 62.8429 200.637 64.5068 203.302 69.6666C205.97 74.8283 209.701 79.3771 216.457 78.147C223.213 76.9178 224.706 69.7053 224.706 69.7053C224.706 69.7053 234.186 80.6072 242.699 67.4593C242.699 67.4593 248.164 73.0618 257.14 71.0866C287.293 64.4492 252.214 4.52799 207.521 15.3345C190.331 19.4901 182.195 30.2462 181.18 36.601C180.526 24.9891 170.408 28.5355 175.663 44.3255C152.777 57.8631 199.009 108.587 197.435 62.8429Z" fill="#71D561"/>
<path fill-rule="evenodd" clip-rule="evenodd" d="M226.438 84.3751C226.464 84.4496 226.504 84.5195 226.557 84.5849L226.848 84.9464L226.854 84.9537H226.855C228.346 86.8047 233.112 92.7273 233.199 93.4257C233.221 93.9316 231.41 95.64 231.008 95.9797C230.084 96.7581 227.557 96.1477 226.649 95.9307C222.723 94.9934 229.389 98.7407 230.858 98.184C232.026 97.7435 232.729 97.1377 233.539 96.2794C234.22 95.5556 235.119 94.2613 235.075 93.3022C235.031 92.3159 230.133 86.0527 228.459 84.0327C226.873 82.0301 226.692 80.6332 226.883 79.7822C227.012 79.2027 226.911 78.3726 226.224 79.5115C225.652 80.4597 225.043 82.2253 226.438 84.3751Z" fill="#959595"/>
<path fill-rule="evenodd" clip-rule="evenodd" d="M213.516 45.4829C213.483 45.4757 202.187 42.7735 196.539 46.2871C196.482 46.3214 196.465 46.3962 196.499 46.4521C196.532 46.5044 196.6 46.5225 196.654 46.4954L196.655 46.4963C196.66 46.4927 198.977 45.3603 200.843 46.5044C202.445 47.4881 203.638 47.0742 205.219 46.5279C205.588 46.3998 205.979 46.2637 206.394 46.142C207.519 45.8048 208.736 45.5794 209.978 45.5054C211.131 45.4369 212.307 45.4964 213.454 45.7146L213.461 45.7164H213.46L213.466 45.7173C213.53 45.729 213.593 45.6866 213.605 45.6226C213.618 45.5595 213.578 45.4982 213.516 45.4838V45.4829ZM248.446 25.4373C250.204 32.4014 250.679 48.0876 218.204 45.8589L217.438 45.8039C216.88 45.7642 216.577 45.7371 216.631 45.9175V45.9202L216.632 45.9247C216.653 45.9833 216.718 46.0166 216.778 45.9995H216.779C216.955 46.0482 217.291 46.0987 217.816 46.1753L218.221 46.2348C220.552 46.5819 225.1 47.1689 230.069 47.3258C233.274 47.4277 236.656 47.3519 239.731 46.9183C243.496 46.3872 246.405 45.3377 248.659 44.1115C250.918 42.8835 252.523 41.4779 253.682 40.2418C253.911 39.9975 254.079 39.8154 254.248 39.6341C256.189 37.5424 257.119 36.5407 259.636 36.6633C256.583 32.6133 252.803 28.7589 248.446 25.4373Z" fill="#ABE8A2"/>
<path fill-rule="evenodd" clip-rule="evenodd" d="M218.265 75.7319C218.289 76.4215 218.146 76.7774 218.031 76.9486C217.864 76.023 217.192 75.4301 216.209 75.0839C209.843 73.2714 200.473 76.4031 196.518 80.4797C196.483 80.5155 196.471 80.5754 196.492 80.6276C196.518 80.6895 196.583 80.7157 196.636 80.6847C199.7 78.9757 202.921 78.2494 205.854 78.0627C210.555 77.7639 214.512 78.8442 215.906 79.4584C216.398 79.675 216.982 79.8887 217.536 79.8355C218.106 79.7804 218.638 79.4477 218.997 78.5666C219.116 78.2765 219.193 77.996 219.237 77.731C219.342 77.1062 219.268 76.5646 219.141 76.1671C219.009 75.7541 218.811 75.4823 218.69 75.4166C218.675 75.4079 218.659 75.4021 218.645 75.3972H218.642L218.641 75.3963H218.639C218.305 75.3208 218.266 75.7096 218.266 75.7096L218.265 75.7319Z" fill="#4A4A4A"/>
<path d="M198.473 93.855C198.392 93.855 198.313 93.7681 198.268 93.6116C198.202 93.3785 198.24 93.0788 198.354 92.9439C198.576 92.6749 198.671 92.3477 198.672 92.3436C198.738 92.1135 198.881 92.0307 198.993 92.1657C199.106 92.2976 199.146 92.5901 199.083 92.8242C199.069 92.8805 198.927 93.3836 198.591 93.7875C198.554 93.8335 198.513 93.855 198.473 93.855Z" fill="#7F7F7F"/>
<path d="M200.3 94.7322C200.232 94.7322 200.163 94.6982 200.106 94.6272C199.973 94.4622 199.951 94.1612 200.059 93.9551C200.218 93.6511 200.25 93.3791 200.25 93.3771C200.28 93.1191 200.441 92.9451 200.605 92.9831C200.773 93.0251 200.889 93.2621 200.864 93.5201C200.86 93.5731 200.808 94.0451 200.542 94.5542C200.481 94.6722 200.391 94.7322 200.3 94.7322Z" fill="#7F7F7F"/>
<path fill-rule="evenodd" clip-rule="evenodd" d="M201.34 91.2236C198.986 85.8958 205.935 81.0058 211.119 82.8482C215.099 84.2625 217.658 85.3484 218.41 85.1305C218.41 85.1305 217.555 87.2827 217.164 87.1605C216.773 87.0374 206.059 88.0734 205.5 88.1594C204.939 88.2445 201.34 91.2236 201.34 91.2236Z" fill="#959595"/>
<path fill-rule="evenodd" clip-rule="evenodd" d="M210.412 88.369C206.763 88.259 202.935 88.5813 201.059 91.1625C201.041 91.1995 201 91.2253 200.957 91.2236C200.902 91.221 200.861 91.1745 200.868 91.1187C201.263 86.6345 207.302 85.0667 212.018 85.2644C213.134 85.3117 214.188 85.4036 215.091 85.4819L215.565 85.5231C218.077 85.7389 218.209 85.1707 218.21 85.169C218.219 85.1243 218.26 85.0882 218.308 85.0839C218.365 85.0796 218.41 85.1217 218.41 85.1767C218.431 86.3405 217.34 87.7811 216.371 88.2461C215.071 88.8684 212.537 88.4335 210.412 88.369Z" fill="#4A4A4A"/>
<path fill-rule="evenodd" clip-rule="evenodd" d="M224.404 116.443C223.923 116.364 223.603 115.957 223.687 115.537C223.772 115.117 224.23 114.84 224.712 114.92C224.719 114.921 227.372 115.71 230.639 115.361C231.792 115.241 231.915 116.39 230.763 116.509C227.239 116.885 224.412 116.445 224.404 116.443Z" fill="#7F7F7F"/>
<path d="M244.745 27.5349C243.813 27.5349 242.874 27.6225 241.95 27.7959C237.884 28.5562 234.35 30.8966 231.999 34.3852C229.649 37.8747 228.761 42.0936 229.503 46.2667C230.845 53.8208 237.239 59.3029 244.706 59.3029C245.637 59.3029 246.576 59.2153 247.5 59.0428C251.566 58.2816 255.1 55.9412 257.451 52.4535C259.802 48.964 260.688 44.7433 259.946 40.571C258.605 33.0169 252.212 27.5349 244.745 27.5349ZM244.706 60.5233C236.664 60.5233 229.779 54.6195 228.334 46.4867C227.536 41.9913 228.489 37.4475 231.022 33.6906C233.553 29.9336 237.358 27.4144 241.737 26.5956C242.73 26.4085 243.742 26.3145 244.745 26.3145C252.786 26.3145 259.672 32.2183 261.115 40.3511C261.915 44.8456 260.961 49.3902 258.429 53.1472C255.898 56.9042 252.092 59.4243 247.713 60.2431C246.72 60.4293 245.708 60.5233 244.706 60.5233Z" fill="white"/>
<path d="M204.398 34.5262C203.415 34.5262 202.421 34.6173 201.446 34.7951C197.151 35.5777 193.417 37.9871 190.934 41.5775C188.451 45.1679 187.514 49.5115 188.298 53.8068C189.715 61.5808 196.469 67.2233 204.356 67.2233C205.34 67.2233 206.333 67.1331 207.31 66.9553C216.175 65.3392 222.073 56.8111 220.458 47.9436C219.041 40.1695 212.286 34.5262 204.398 34.5262ZM204.356 68.4177C195.891 68.4177 188.643 62.3625 187.122 54.0212C186.282 49.4114 187.287 44.7516 189.951 40.8985C192.616 37.0455 196.623 34.46 201.232 33.6203C202.279 33.43 203.343 33.3317 204.398 33.3317C212.864 33.3317 220.112 39.3879 221.633 47.7292C223.367 57.2444 217.038 66.396 207.523 68.1301C206.477 68.3204 205.412 68.4177 204.356 68.4177Z" fill="white"/>
<path d="M219.865 43.8575C219.663 43.8575 219.465 43.7585 219.36 43.5819C219.206 43.3246 219.306 42.9995 219.585 42.8565C220.921 42.1718 222.366 41.694 223.882 41.4391C225.396 41.1835 226.931 41.1579 228.442 41.3624C228.758 41.4056 228.977 41.6764 228.93 41.9688C228.883 42.2596 228.591 42.4618 228.275 42.4194C226.889 42.2309 225.48 42.2557 224.089 42.4897C222.697 42.7246 221.371 43.1625 220.144 43.7904C220.055 43.8368 219.96 43.8575 219.865 43.8575Z" fill="white"/>
<path d="M214.671 43.0769C214.534 43.0769 214.398 43.0245 214.305 42.9233C213.987 42.5767 213.643 42.2412 213.284 41.9263C213.101 41.765 213.102 41.5058 213.286 41.3463C213.468 41.1858 213.764 41.1858 213.948 41.3471C214.331 41.6835 214.696 42.0404 215.036 42.4102C215.198 42.5861 215.166 42.8444 214.964 42.9859C214.878 43.0468 214.774 43.0769 214.671 43.0769ZM216.84 56.1376C216.78 56.1376 216.72 56.1264 216.663 56.1067C216.423 56.0209 216.308 55.7815 216.406 55.5721C217.444 53.3516 217.733 50.9234 217.239 48.5501C216.908 46.9654 216.248 45.4742 215.279 44.1202C215.141 43.9289 215.208 43.6766 215.428 43.5548C215.646 43.4347 215.936 43.4939 216.073 43.6852C217.105 45.1267 217.808 46.7157 218.159 48.4034C218.687 50.9311 218.38 53.5172 217.273 55.8819C217.199 56.0415 217.024 56.1376 216.84 56.1376Z" fill="white"/>
<path d="M257.42 42.985C257.198 42.985 257.009 42.8104 256.992 42.5806C256.957 42.1413 256.901 41.7001 256.822 41.2571C256.245 38.0375 254.502 35.1928 251.917 33.2461C251.725 33.1018 251.685 32.827 251.827 32.6322C251.969 32.4373 252.238 32.3969 252.431 32.5403C255.194 34.6202 257.055 37.6606 257.672 41.099C257.756 41.5714 257.816 42.0438 257.853 42.5117C257.871 42.7534 257.694 42.9648 257.456 42.9832C257.445 42.985 257.433 42.985 257.42 42.985ZM257.366 45.6118C257.348 45.6118 257.331 45.6109 257.313 45.6081C257.076 45.5787 256.908 45.36 256.937 45.1192C256.977 44.78 257.005 44.4381 257.019 44.0925C257.028 43.8508 257.211 43.6431 257.468 43.6725C257.706 43.6826 257.892 43.8867 257.882 44.1293C257.867 44.497 257.837 44.8637 257.794 45.2258C257.767 45.4482 257.58 45.6118 257.366 45.6118Z" fill="white"/>
<path fill-rule="evenodd" clip-rule="evenodd" d="M233.853 73.9089C233.966 74.495 234.135 74.7538 234.248 74.8663C234.187 74.0415 234.541 73.3547 235.162 72.7869C239.258 69.4813 246.398 69.4886 249.941 71.8066H249.94C249.972 71.8277 249.993 71.8752 249.986 71.9246C249.981 71.984 249.94 72.0233 249.898 72.0142C247.431 71.4335 245.044 71.7271 242.961 72.3919C239.622 73.4563 237.067 75.4744 236.212 76.3806C235.91 76.6997 235.544 77.0435 235.147 77.1523C234.738 77.2657 234.303 77.1368 233.884 76.4958C233.746 76.2846 233.638 76.0715 233.556 75.8612C233.363 75.3656 233.311 74.8901 233.324 74.5197C233.336 74.1357 233.423 73.8513 233.494 73.7626C233.503 73.7498 233.513 73.7416 233.522 73.7342L233.524 73.7315H233.525H233.526C233.746 73.5742 233.847 73.8888 233.847 73.8897L233.853 73.9089Z" fill="#4A4A4A"/>
<path d="M255.686 84.2064C255.651 84.2064 255.617 84.2033 255.583 84.1977C254.914 84.0917 254.548 83.8641 254.508 83.8393C254.333 83.7252 254.328 83.5379 254.499 83.4195C254.666 83.3029 254.945 83.2986 255.12 83.4108C255.131 83.4164 255.364 83.5547 255.788 83.6216C256.026 83.6595 256.172 83.8195 256.116 83.9788C256.067 84.114 255.886 84.2064 255.686 84.2064Z" fill="#7F7F7F"/>
<path d="M254.099 85.9607C254.045 85.9607 253.991 85.9304 253.944 85.8677C253.65 85.4768 253.534 85.0199 253.522 84.9683C253.458 84.7006 253.517 84.3825 253.655 84.2571C253.79 84.1328 253.953 84.2448 254.019 84.5091C254.022 84.5225 254.089 84.7656 254.254 84.9818C254.379 85.1487 254.411 85.4824 254.326 85.7266C254.272 85.8778 254.186 85.9607 254.099 85.9607Z" fill="#7F7F7F"/>
<path fill-rule="evenodd" clip-rule="evenodd" d="M252.564 83.1545C253.328 77.7639 245.97 75.4731 241.839 78.6133C238.67 81.0242 236.673 82.7288 235.953 82.7579C235.953 82.7579 237.244 84.4083 237.56 84.1858C237.875 83.9633 247.609 81.7507 248.126 81.6637C248.643 81.5756 252.564 83.1545 252.564 83.1545Z" fill="#959595"/>
<path fill-rule="evenodd" clip-rule="evenodd" d="M243.213 83.4555C246.47 82.2941 250.015 81.5128 252.45 83.5448C252.478 83.5755 252.521 83.5889 252.561 83.5755C252.609 83.5582 252.633 83.4987 252.611 83.4459C250.961 79.0902 245.065 79.2697 240.869 80.8256C239.875 81.1932 238.953 81.5886 238.162 81.9274L237.745 82.105C235.543 83.0437 235.259 82.5158 235.258 82.5158C235.237 82.4736 235.191 82.4486 235.146 82.4592C235.095 82.4697 235.065 82.5245 235.08 82.5811C235.398 83.7454 236.797 84.8664 237.804 85.0498C239.156 85.2964 241.316 84.1322 243.213 83.4555Z" fill="#4A4A4A"/>
<path fill-rule="evenodd" clip-rule="evenodd" d="M238.107 99.348C235.761 100.417 231.948 100.933 228.098 100.906C224.245 100.879 220.405 100.31 218.015 99.2068C217.54 98.9889 216.972 99.1853 216.748 99.6476C216.646 99.856 216.632 100.082 216.69 100.288L216.69 100.289C218.226 105.634 220.589 109.315 223.239 111.318C224.878 112.556 226.637 113.168 228.398 113.152C230.161 113.137 231.897 112.489 233.483 111.214C235.98 109.204 238.131 105.599 239.434 100.407C239.559 99.9111 239.247 99.41 238.736 99.2903C238.517 99.2378 238.297 99.2645 238.108 99.3515L238.107 99.348Z" fill="#7F7F7F"/>
<path fill-rule="evenodd" clip-rule="evenodd" d="M237.708 99.5761C235.318 100.428 231.781 100.84 228.213 100.817C224.321 100.791 220.442 100.25 218.029 99.2023C217.549 98.9954 216.975 99.1819 216.749 99.6211C216.646 99.819 216.632 100.034 216.691 100.23H216.69C216.816 100.641 216.947 101.042 217.084 101.433C224.26 104.761 234.419 103.325 236.235 102.281C237.425 101.597 237.684 100.396 237.708 99.5761Z" fill="white"/>
<path fill-rule="evenodd" clip-rule="evenodd" d="M235.953 108.618C234.293 107.722 231.741 107.167 228.284 108.671C228.284 108.671 224.089 104.563 219.288 105.361C220.558 107.992 222.062 109.956 223.674 111.247C225.281 112.533 227.005 113.168 228.732 113.152C230.46 113.137 232.163 112.463 233.717 111.139C234.503 110.468 235.255 109.628 235.953 108.618Z" fill="#959595"/>
<path fill-rule="evenodd" clip-rule="evenodd" d="M242.624 228.059C242.624 228.059 246.498 225.012 247.283 222.372C248.069 219.731 242.263 218.36 241.519 218.412C240.774 218.461 235.953 220.738 235.953 220.738C235.953 220.738 239.67 227.865 242.624 228.059Z" fill="#303030"/>
<path fill-rule="evenodd" clip-rule="evenodd" d="M167.357 155.57C167.357 155.57 160.1 165.788 162.926 178.375C165.752 190.964 173.368 205.647 191.944 211.828C210.521 218.009 223.166 221.919 223.166 221.919L219.511 213.137L237.708 169.506L200.759 157.852C200.759 157.852 183.09 135.852 167.357 155.57Z" fill="#7F7F7F"/>
<path fill-rule="evenodd" clip-rule="evenodd" d="M163.489 163.689C162.372 167.639 161.719 172.69 162.9 178.193C164.256 184.499 166.755 191.327 171.138 197.359C181.547 178.208 169.75 161.396 169.75 161.396C169.75 161.396 167.047 162.341 163.489 163.689Z" fill="#4A4A4A"/>
<path fill-rule="evenodd" clip-rule="evenodd" d="M244.906 180.265L280.413 196.451C282.569 176.974 289.878 158.306 294.89 133.327L315.774 137.69L313.225 214.28C313.225 214.28 311.061 235.31 295.622 233.169C280.183 231.029 236.163 221.977 237.463 221.47C238.76 220.963 232.009 197.776 244.906 180.265Z" fill="#E7E7E7"/>
<path fill-rule="evenodd" clip-rule="evenodd" d="M236.831 203.8C237.091 199.825 237.771 195.502 239.217 191.174C243.179 189.968 248.035 189.91 252.619 192.091C252.619 192.091 252.069 207.51 236.831 203.8Z" fill="#959595"/>
<path fill-rule="evenodd" clip-rule="evenodd" d="M315.774 141.217L315.162 159.418C301.053 161.085 294.722 152.88 294.722 152.88C294.722 152.88 311.89 137.113 311.554 138.702C311.554 138.702 313.379 139.682 315.774 141.217Z" fill="#959595"/>
<path fill-rule="evenodd" clip-rule="evenodd" d="M291.452 134.697C285.339 128.474 285.613 116.352 285.613 116.352C285.342 115.975 281.02 109.939 278.403 106.082C274.795 100.761 275.775 89.6183 281.802 94.6011C283.823 96.2728 285.296 97.7084 285.296 97.7084C287.344 92.4794 288.715 85.3705 296.04 87.1038C299.533 87.932 310.281 90.0202 314.372 91.0276C322.629 93.0641 322.873 103.264 322.873 103.264C328.71 108.947 323.658 120.923 316.452 136.744C316.452 136.744 317.114 149.507 317.189 152.371C317.369 159.239 293.95 155.656 289.096 149.966C287.468 148.057 287.783 145.773 291.452 134.697Z" fill="#4A4A4A"/>
<path d="M295.474 98.1757C296.079 98.9172 297.979 101.071 299.915 101.419C301.091 100.652 302.337 99.7604 303.531 98.8556C301.834 98.7494 298.772 98.2123 296.444 95.8683C296.313 96.5206 296.039 97.3994 295.474 98.1757ZM293.841 103.308C294.194 103.469 294.518 103.592 294.801 103.661C295.564 103.849 297.121 103.144 298.949 102.029C297.131 101.341 295.548 99.6078 294.899 98.8235C294.83 98.8877 294.757 98.9502 294.681 99.01L293.841 103.308ZM295.02 104.537C294.867 104.537 294.726 104.521 294.597 104.489C294.193 104.39 293.723 104.2 293.208 103.947C293.179 103.936 293.153 103.923 293.127 103.907C290.019 102.348 285.452 98.5487 285.226 98.3604C285.046 98.2087 285.022 97.9402 285.173 97.7599C285.324 97.5797 285.595 97.5565 285.775 97.7073C285.827 97.7501 290.059 101.269 293.048 102.906L293.698 99.5899C293.158 99.8139 292.517 99.9495 291.757 99.9575C291.756 99.9575 291.754 99.9575 291.753 99.9575C291.519 99.9575 291.328 99.7693 291.325 99.5346C291.324 99.299 291.513 99.1072 291.749 99.1045C293.115 99.092 294.009 98.579 294.596 97.9152C294.604 97.9036 294.614 97.8937 294.624 97.8839C295.515 96.8516 295.677 95.4722 295.707 95.0278C295.029 94.1561 294.448 93.0872 294.03 91.7791C293.959 91.5552 294.083 91.3151 294.308 91.2438C294.532 91.1724 294.773 91.2964 294.846 91.5212C296.968 98.1659 303.683 98.0659 304.615 98.0187C305.493 97.3307 306.319 96.6544 307.039 96.0405C307.217 95.888 307.487 95.9076 307.641 96.0869C307.794 96.2663 307.772 96.5357 307.594 96.6883C306.616 97.5226 298.296 104.537 295.02 104.537ZM323.241 109.984C323.016 109.984 322.827 109.81 322.814 109.582L322.464 103.535C322.45 103.3 322.629 103.099 322.866 103.086C323.112 103.067 323.304 103.251 323.318 103.486L323.668 109.533C323.681 109.768 323.502 109.97 323.266 109.984C323.257 109.984 323.249 109.984 323.241 109.984ZM288.733 120.784C288.602 120.784 288.472 120.723 288.389 120.61L285.473 116.664C285.332 116.474 285.373 116.207 285.563 116.068C285.754 115.928 286.022 115.969 286.16 116.158L289.077 120.104C289.217 120.293 289.176 120.561 288.986 120.7C288.91 120.756 288.821 120.784 288.733 120.784ZM301.187 137.713C301.174 137.713 301.161 137.711 301.146 137.71C295.632 137.169 291.588 134.961 291.419 134.868C291.212 134.754 291.137 134.494 291.252 134.288C291.367 134.083 291.626 134.009 291.833 134.121C291.874 134.144 295.9 136.339 301.229 136.861C301.465 136.885 301.636 137.092 301.613 137.328C301.591 137.547 301.406 137.713 301.187 137.713Z" fill="#959595"/>
<path d="M279.4 200.867C279.371 200.867 279.34 200.864 279.312 200.858C279.058 200.809 278.892 200.559 278.943 200.301L279.765 195.989C279.813 195.732 280.06 195.563 280.311 195.613C280.564 195.664 280.729 195.913 280.679 196.17L279.857 200.482C279.814 200.71 279.619 200.867 279.4 200.867Z" fill="#4A4A4A"/>
<path fill-rule="evenodd" clip-rule="evenodd" d="M299.783 137.081C299.783 137.081 296.883 137.854 293.312 137.69C292.354 137.646 291.347 137.535 290.337 137.322C290.632 136.444 290.956 135.495 291.311 134.469C291.311 134.469 292.23 134.959 293.786 135.536C295.279 136.09 297.36 136.724 299.783 137.081ZM294.487 104.122C294.089 104.027 293.618 103.843 293.101 103.596L294.068 98.8283C294.32 98.6511 294.538 98.4526 294.729 98.2408C294.729 98.2408 297.299 101.589 299.985 101.919C297.737 103.325 295.582 104.382 294.487 104.122Z" fill="#7F7F7F"/>
<path fill-rule="evenodd" clip-rule="evenodd" d="M242.093 147.992L250.799 153.914C250.799 153.914 252.401 155.139 253.789 153.609C255.176 152.08 253.737 145.325 253.129 141.087C252.675 137.921 250.091 136.084 248.813 135.357C247.742 134.747 246.785 135.327 246.873 135.408C247.141 135.66 247.943 136.065 247.943 136.065C247.569 138.044 246.3 142.6 242.093 147.992Z" fill="white"/>
<path d="M237.725 169.572C237.683 169.572 237.639 169.566 237.595 169.551L200.651 157.871C200.571 157.845 200.499 157.796 200.446 157.73C200.437 157.718 199.535 156.599 197.993 155.119C197.821 154.955 197.816 154.682 197.98 154.511C198.145 154.339 198.416 154.334 198.587 154.498C199.92 155.776 200.772 156.774 201.033 157.089L237.855 168.731C238.081 168.803 238.207 169.044 238.135 169.271C238.077 169.454 237.908 169.572 237.725 169.572ZM282.89 175.192C282.712 175.192 282.546 175.081 282.485 174.904L276.955 159.019C276.877 158.794 276.995 158.55 277.219 158.472C277.444 158.392 277.687 158.513 277.767 158.736L283.296 174.621C283.373 174.846 283.255 175.09 283.031 175.169C282.985 175.185 282.937 175.192 282.89 175.192ZM223.186 222.105C223.144 222.105 223.101 222.098 223.059 222.085C222.933 222.046 210.199 218.093 191.833 211.968C184.656 209.574 178.586 205.73 173.789 200.54C173.628 200.365 173.64 200.093 173.814 199.931C173.988 199.771 174.26 199.782 174.421 199.956C179.117 205.038 185.067 208.805 192.104 211.153C210.461 217.274 223.187 221.224 223.313 221.264C223.54 221.334 223.667 221.575 223.597 221.802C223.539 221.986 223.37 222.105 223.186 222.105ZM236.032 261.391C236.028 261.391 236.023 261.391 236.019 261.39C210.329 260.654 193.984 251.982 193.822 251.894C193.613 251.781 193.535 251.52 193.647 251.312C193.76 251.102 194.02 251.025 194.229 251.136C194.39 251.224 210.571 259.801 236.045 260.531C236.28 260.537 236.468 260.735 236.461 260.973C236.455 261.206 236.264 261.391 236.032 261.391Z" fill="#4A4A4A"/>
<path fill-rule="evenodd" clip-rule="evenodd" d="M231.568 260.774C217.27 259.881 206.339 256.71 199.99 254.373C209.518 258.734 223.34 269.345 231.568 260.774Z" fill="#4A4A4A"/>
<path fill-rule="evenodd" clip-rule="evenodd" d="M242.663 227.782C239.513 229.161 214.621 225.471 214.072 214.916C213.355 201.111 220.82 182.698 229.765 172.553C233.174 168.687 236.55 166.069 242.19 168.438C247.064 170.486 260.985 176.892 259.53 176.58C251.394 174.838 231.773 218.126 242.663 227.782Z" fill="#303030"/>
<path fill-rule="evenodd" clip-rule="evenodd" d="M278.48 195.5C279.077 186.822 280.721 175.079 269.843 173.019C269.8 173.012 269.73 173.036 269.713 172.995C267.562 167.922 263.913 166.175 259.418 167.933C259.418 167.933 255.04 162.7 250.883 166.491C247.278 164.047 246.04 164.427 243.658 167.628C237.861 175.412 235.721 191.773 244.376 195.492C246.391 196.358 249.09 193.542 249.09 193.542C251.847 197.728 255.095 199.536 257.332 193.351L257.333 193.352C257.333 193.352 258.941 195.246 260.753 195.137C262.566 195.029 263.057 193.771 263.057 193.771C263.057 193.771 267.711 196.146 268.757 191.055L273.496 193.221L278.48 195.5Z" fill="#4A4A4A"/>
<path fill-rule="evenodd" clip-rule="evenodd" d="M278.727 195.604C278.79 194.714 278.865 193.787 278.934 192.842C278.885 192.896 278.83 192.949 278.769 193C278.628 193.118 278.45 193.223 278.228 193.297C278.015 193.368 277.762 193.408 277.461 193.402C277.009 193.393 276.448 193.277 275.754 192.995C274.236 192.378 272.579 191.415 271.276 190.59C270.587 190.153 269.997 189.754 269.581 189.464C269.431 190.69 269.285 191.669 269.285 191.669L269.391 191.716C269.412 191.628 269.434 191.536 269.454 191.442L273.974 193.471L278.727 195.604Z" fill="#7F7F7F"/>
<path d="M268.866 191.935C268.845 191.935 268.823 191.933 268.803 191.929C268.571 191.893 268.412 191.671 268.446 191.43C268.449 191.405 268.725 189.466 268.908 187.552C268.909 187.536 268.911 187.519 268.913 187.505C268.976 186.841 269.029 186.182 269.055 185.609C269.067 185.367 269.292 185.184 269.498 185.191C269.732 185.202 269.912 185.408 269.902 185.65C269.885 186.037 269.856 186.457 269.819 186.888L273.086 185.496C273.303 185.403 273.549 185.51 273.639 185.734C273.728 185.96 273.624 186.217 273.408 186.309L269.729 187.877C269.546 189.702 269.299 191.454 269.284 191.559C269.253 191.777 269.073 191.935 268.866 191.935ZM257.522 194.296C257.411 194.296 257.299 194.251 257.216 194.162C254.27 190.982 252.824 186.346 253.145 181.109C253.485 175.532 255.854 170.266 259.327 167.363C259.508 167.212 259.776 167.241 259.923 167.43C260.069 167.62 260.041 167.896 259.858 168.048C256.566 170.801 254.317 175.827 253.99 181.165C253.685 186.153 255.048 190.551 257.827 193.553C257.989 193.727 257.984 194.005 257.816 194.174C257.734 194.256 257.628 194.296 257.522 194.296ZM249.34 194.493C249.199 194.493 249.059 194.417 248.98 194.284C243.317 184.842 245.354 171.996 250.809 165.922C250.969 165.743 251.236 165.734 251.408 165.899C251.579 166.066 251.588 166.345 251.429 166.522C246.187 172.358 244.242 184.719 249.699 193.819C249.823 194.026 249.762 194.296 249.563 194.425C249.494 194.47 249.417 194.493 249.34 194.493ZM263.204 194.727C263.01 194.727 262.836 194.589 262.792 194.384C259.853 180.835 269.452 172.652 269.55 172.57C269.731 172.42 269.998 172.45 270.144 172.639C270.291 172.828 270.262 173.104 270.079 173.257C269.986 173.334 260.798 181.19 263.619 194.191C263.67 194.428 263.526 194.664 263.298 194.717C263.267 194.724 263.236 194.727 263.204 194.727Z" fill="#7F7F7F"/>
<path d="M258.188 71.478C258.001 71.478 257.831 71.3567 257.776 71.1699C257.708 70.9426 257.839 70.7036 258.066 70.6363C266.234 68.2343 269.394 61.1775 266.736 51.2758C261.652 32.3375 236.022 9.24916 207.437 16.1605C190.296 20.3078 182.423 31.1688 181.486 37.0399C181.449 37.2753 181.231 37.4361 180.994 37.3966C180.76 37.3598 180.6 37.1396 180.637 36.9061C181.647 30.5733 189.564 19.6017 207.235 15.3269C220.552 12.1012 234.55 14.9613 246.649 23.3709C256.876 30.4799 264.891 41.0876 267.565 51.053C270.322 61.3158 266.861 68.9448 258.309 71.46C258.269 71.4717 258.228 71.478 258.188 71.478ZM235.662 129.06C235.474 129.06 235.303 128.937 235.248 128.749C235.183 128.521 235.314 128.284 235.543 128.218C252.086 123.47 262.121 107.092 261.108 86.4917C261.096 86.2555 261.279 86.0533 261.516 86.0417C261.767 86.0417 261.955 86.2123 261.965 86.4486C262.042 88.0035 262.057 89.5351 262.012 91.0397C262.928 90.9939 263.758 90.5851 264.483 89.8243C267.043 87.134 267.627 80.9035 267.429 78.877C267.406 78.6408 267.578 78.4306 267.815 78.4072C268.051 78.3839 268.261 78.5564 268.284 78.7926C268.5 81.0023 267.894 87.4861 265.106 90.4154C264.202 91.3658 263.151 91.8643 261.979 91.9002C261.135 110.318 251.227 124.61 235.779 129.043C235.74 129.055 235.7 129.06 235.662 129.06ZM307.393 238.428C307.232 238.428 307.079 238.338 307.005 238.183C306.903 237.97 306.994 237.714 307.209 237.612C318.098 232.433 319.29 218.2 319.301 218.057C319.319 217.821 319.529 217.648 319.761 217.661C319.998 217.679 320.176 217.884 320.159 218.121C320.146 218.269 318.922 232.992 307.578 238.387C307.518 238.415 307.455 238.428 307.393 238.428ZM178.117 242.093C177.945 242.093 177.782 241.989 177.716 241.819L169.32 220.237C169.233 220.017 169.343 219.769 169.564 219.683C169.782 219.596 170.034 219.707 170.119 219.928L178.517 241.509C178.603 241.73 178.493 241.978 178.273 242.064C178.222 242.084 178.169 242.093 178.117 242.093Z" fill="white"/>
<path fill-rule="evenodd" clip-rule="evenodd" d="M39.4717 138.052L39.9937 143.656C39.9937 143.656 59.9094 144.677 59.6435 144.73C59.3785 144.782 59.182 134.204 59.182 134.204L39.4717 138.052Z" fill="#959595"/>
<path fill-rule="evenodd" clip-rule="evenodd" d="M59.5275 247.367L63.0951 241.216L90.3465 245.326L82 313C70.5 308 61.5 304.5 52.5 300L59.5275 247.367Z" fill="#4A4A4A"/>
<path fill-rule="evenodd" clip-rule="evenodd" d="M59.0104 247.119L62.6244 241.216L62.9999 241.245L90.3464 245.153L88.1833 258.759C77.789 257.98 67.2965 254.216 58.769 250.218L59.0104 247.119Z" fill="#4A4A4A"/>
<path fill-rule="evenodd" clip-rule="evenodd" d="M106.036 137.713C106.036 137.713 69.6668 176.096 68.3216 178.583C67.2897 180.489 61.4406 223.77 58.769 243.848L93.7476 243.25L135.958 144.46L106.036 137.713Z" fill="#7F7F7F"/>
<path fill-rule="evenodd" clip-rule="evenodd" d="M105.226 138.59C104.222 139.633 102.365 141.562 99.9951 144.031L100.909 150.501C100.909 150.501 108.262 155.197 115.892 157.311C119.902 158.423 125.812 157.769 130.516 156.663L135.081 146.165C134.91 146.046 134.729 145.93 134.538 145.815C131.418 143.944 114.534 140.43 105.226 138.59Z" fill="#4A4A4A"/>
<path fill-rule="evenodd" clip-rule="evenodd" d="M62.2776 232.445C62.2776 232.445 72.8409 235.116 86.5116 234.498C100.181 233.882 90.5763 244.978 90.5763 244.978C90.5763 244.978 76.6162 246.828 62.7105 244.158L62.2776 232.445Z" fill="#303030"/>
<path fill-rule="evenodd" clip-rule="evenodd" d="M108.362 142.519L73.4038 181.133C73.4038 181.133 71.85 183.607 71.8917 187.55C71.9325 191.494 65.9391 249.141 65.9391 249.141C65.4722 252.263 62.2411 287.81 61 304C60.5 304.5 42 295 34 289.5C36.3535 282.238 49.9607 257.15 50.6198 256.018C48.1747 249.1 52.4429 246.478 52.5562 246.403L62.0417 181.104C62.0417 181.104 62.2919 174.817 65.8693 171.142C66.8692 170.116 70.3532 167.073 74.8516 163.222C82.4333 150.237 86.6172 143.794 102.358 138.691L101.832 140.476C103.675 138.935 104.789 138.008 104.789 138.008L110.521 136.835L108.362 142.519Z" fill="#71D561"/>
<path fill-rule="evenodd" clip-rule="evenodd" d="M69.2949 219.832C68.9568 223.241 68.6188 226.619 68.2975 229.813C64.1691 227.2 58.845 227.378 55.2605 227.934L56.7552 217.533L69.2949 219.832Z" fill="#336D3D"/>
<path fill-rule="evenodd" clip-rule="evenodd" d="M108.603 142.118L101.022 150.87C95.3306 146.504 92.9815 142.205 92.9778 142.199C95.6375 140.693 98.7513 139.338 102.516 138.061L101.983 139.953L104.902 137.404C106.535 137.234 108.418 137.042 110.521 136.835L108.603 142.118Z" fill="#336D3D"/>
<path fill-rule="evenodd" clip-rule="evenodd" d="M171.044 163.273C171.044 163.273 154.12 166.179 157.035 205.662L129.447 249.766C129.447 249.766 132.797 257.021 128.728 261.112C142.169 281.704 150.165 293.37 153 327.5C120 324 95 320.5 65 306C67.0498 288.024 74.3467 256.193 76.3149 239.636L87.0502 213.791L77.0767 193.141C77.0767 193.141 76.7533 186.815 79.5196 184.842C79.5196 184.842 103.475 165.133 123.678 152.675C134.763 145.84 151.898 144.155 152.124 144.093C156.844 141.511 169.984 160.543 171.044 163.273Z" fill="#71D561"/>
<path fill-rule="evenodd" clip-rule="evenodd" d="M156.701 194.422C156.608 197.83 156.695 201.605 157.01 205.792L150.088 216.656C145.44 211.329 138.59 212.776 138.59 212.776L151.045 193.948C153.055 193.715 154.94 193.908 156.701 194.422Z" fill="#336D3D"/>
<path fill-rule="evenodd" clip-rule="evenodd" d="M101.549 222.796C101.549 222.796 98.0676 220.197 97.4178 218.01C96.7681 215.822 102.148 214.844 102.832 214.904C103.516 214.964 107.889 216.955 107.889 216.955C107.889 216.955 104.274 222.711 101.549 222.796Z" fill="#17412D"/>
<path fill-rule="evenodd" clip-rule="evenodd" d="M169.674 161.166C169.674 161.166 175.738 170.407 172.936 181.476C170.134 192.545 163.097 205.34 146.716 210.315C130.335 215.288 119.192 218.41 119.192 218.41L122.615 210.733L107.889 171.616L140.455 162.29C140.455 162.29 156.464 143.287 169.674 161.166Z" fill="#71D561"/>
<path fill-rule="evenodd" clip-rule="evenodd" d="M115.784 157.2C118.395 155.504 121.002 153.869 123.549 152.345C134.55 145.766 151.556 144.143 151.781 144.083C154.245 142.777 159.021 147.228 163.15 152.123C142.071 159.729 126.684 159.848 115.784 157.2Z" fill="#336D3D"/>
<path fill-rule="evenodd" clip-rule="evenodd" d="M100.712 181.196L69.4977 194.439C68.2587 178.783 66.2864 165.578 64.523 146.281C63.9206 139.687 62.2836 139.577 59.6048 139.467C52.0653 141.823 47.5398 142.857 40.1946 141.507C36.5666 143.007 36.6681 145.33 36.9798 148.539L40.5745 209.195C40.5745 209.195 41.8972 227.687 55.3411 226.222C68.785 224.757 107.194 217.993 106.082 217.514C104.97 217.035 111.435 196.889 100.712 181.196Z" fill="#4A4A4A"/>
<path fill-rule="evenodd" clip-rule="evenodd" d="M59.3904 137.236C64.8429 131.957 66.7714 121.91 66.7714 121.91C67.0164 121.587 69.7777 117.923 72.1422 114.617C75.4043 110.062 75.8296 101.161 70.4854 105.357C68.6919 106.764 67.3796 107.981 67.3796 107.981C65.7441 103.353 64.7425 97.1007 58.3586 98.4198C55.315 99.0509 45.9584 100.589 42.3936 101.362C35.1944 102.922 34.7151 111.835 34.7151 111.835C29.5164 116.646 34.1581 124.331 39.8336 138.419C41.8218 143.357 59.3904 137.236 59.3904 137.236Z" fill="white"/>
<path d="M51.445 108.243C52.4257 109.027 53.4457 109.797 54.4111 110.467C56.0649 110.214 57.733 108.472 58.3069 107.82C57.8886 107.213 57.6517 106.527 57.5381 105.906C55.5035 107.764 52.9451 108.177 51.445 108.243ZM55.3435 111.091C56.8659 112.071 58.1594 112.688 58.8093 112.554C59.0453 112.504 59.3162 112.413 59.613 112.291L58.9997 108.587C58.9542 108.549 58.9112 108.51 58.8683 108.471C58.2667 109.142 56.8954 110.523 55.3435 111.091ZM58.669 113.411C55.8146 113.411 48.6112 107.004 47.7691 106.244C47.5939 106.088 47.5805 105.821 47.7396 105.648C47.8987 105.475 48.1687 105.463 48.343 105.619C48.9536 106.168 49.6535 106.774 50.3991 107.393C51.1241 107.455 54.9877 107.643 57.5221 104.72C57.5426 104.69 57.5659 104.661 57.5918 104.638C58.172 103.95 58.6779 103.094 59.0561 102.033C59.1347 101.812 59.3788 101.695 59.6005 101.774C59.8231 101.851 59.9402 102.093 59.8615 102.313C59.461 103.437 58.9255 104.352 58.3105 105.094C58.3391 105.764 58.635 108.554 61.6163 108.671C61.8514 108.681 62.0356 108.877 62.0257 109.111C62.0168 109.344 61.8246 109.534 61.5824 109.517C60.9584 109.492 60.422 109.369 59.9625 109.175L60.4158 111.917C63.0663 110.562 66.8039 107.661 66.8495 107.626C67.0336 107.481 67.3027 107.512 67.4493 107.696C67.595 107.88 67.5628 108.146 67.3778 108.29C67.1749 108.448 63.0806 111.624 60.3085 112.905C60.2826 112.921 60.2531 112.935 60.2227 112.945C59.765 113.151 59.3457 113.304 58.9881 113.381C58.8889 113.402 58.7825 113.411 58.669 113.411ZM33.7595 117.406C33.7461 117.406 33.7339 117.404 33.7214 117.404C33.4864 117.383 33.3131 117.177 33.3334 116.945L33.8016 111.697C33.8227 111.465 34.0311 111.298 34.2647 111.313C34.499 111.334 34.6732 111.539 34.6527 111.771L34.1841 117.02C34.1649 117.239 33.9787 117.406 33.7595 117.406ZM65.1939 123.678C65.1018 123.678 65.0088 123.648 64.9311 123.588C64.7451 123.444 64.7129 123.177 64.8587 122.994L66.1656 121.346C66.3113 121.163 66.5804 121.132 66.7655 121.275C66.9505 121.419 66.9836 121.685 66.837 121.868L65.53 123.516C65.446 123.622 65.3208 123.678 65.1939 123.678Z" fill="#959595"/>
<path d="M69.9064 198.236C69.7792 198.236 69.666 198.083 69.6449 197.868L69.2983 194.361C69.275 194.12 69.3733 193.895 69.5177 193.857C69.6649 193.814 69.7987 193.981 69.822 194.219L70.1685 197.727C70.1924 197.965 70.0935 198.191 69.9492 198.229C69.9353 198.234 69.9208 198.236 69.9064 198.236Z" fill="#959595"/>
<path fill-rule="evenodd" clip-rule="evenodd" d="M59.2629 113.126C59.6243 113.053 60.0529 112.9 60.5233 112.694L59.7902 108.43C59.5683 108.267 59.3777 108.084 59.2126 107.889C59.2126 107.889 56.8075 110.801 54.3833 111.024C56.3636 112.334 58.2718 113.329 59.2629 113.126Z" fill="#7F7F7F"/>
<path fill-rule="evenodd" clip-rule="evenodd" d="M93.902 142.928C90.3748 140.091 92.391 134.706 97.4979 129.992C84.5289 119.493 78.3268 104.762 88.1685 83.6116C94.6606 11.1803 180.24 21.7007 169.351 93.5927C173.887 116.51 173.626 125.44 158.545 132.488C161.635 137.35 162.466 144.53 157.437 146.86C130.372 158.746 106.384 152.963 93.902 142.928Z" fill="#71D561"/>
<path fill-rule="evenodd" clip-rule="evenodd" d="M96.5101 105.054C99.3353 142.905 140.546 148.661 153.505 113.019C159.689 93.515 155.8 56.4882 132.764 52.7838C109.594 50.0338 95.8379 84.593 96.5101 105.054Z" fill="#336D3D"/>
<path fill-rule="evenodd" clip-rule="evenodd" d="M95.6392 101.769C98.685 139.243 141.153 145.089 154.37 109.856C160.67 90.573 156.533 53.9098 132.792 50.1601C108.917 47.3548 94.8734 81.5126 95.6392 101.769Z" fill="#E7E7E7"/>
<path fill-rule="evenodd" clip-rule="evenodd" d="M156.133 85.0835C156.014 83.7272 155.859 82.3737 155.663 81.0282C152.853 67.2209 145.479 54.9537 131.986 52.805C118.418 51.1834 107.995 60.9757 101.546 73.4939C100.993 74.7328 100.476 75.9931 99.9951 77.2642C106.789 65.5706 117.428 56.7518 131.21 58.4156C144.922 60.5813 152.769 71.9754 156.133 85.0835Z" fill="#959595"/>
<path fill-rule="evenodd" clip-rule="evenodd" d="M125.72 95.9817C125.707 96.0505 125.686 96.1174 125.654 96.1817L125.475 96.5394L125.472 96.5458H125.471C124.554 98.3741 121.628 104.221 121.655 104.848C121.705 105.297 123.352 106.574 123.711 106.821C124.538 107.391 126.432 106.525 127.112 106.216C130.054 104.883 125.349 109.051 124.125 108.751C123.153 108.512 122.523 108.068 121.775 107.413C121.144 106.86 120.268 105.834 120.172 104.981C120.075 104.103 123.059 97.9402 124.094 95.9395C125.061 93.9663 125.015 92.7086 124.753 91.982C124.573 91.4876 124.543 90.74 125.231 91.6573C125.805 92.4215 126.52 93.903 125.72 95.9817Z" fill="#959595"/>
<path fill-rule="evenodd" clip-rule="evenodd" d="M119.556 75.9012C119.481 76.4342 119.324 76.6847 119.215 76.7983C119.218 76.0614 118.8 75.5003 118.112 75.078C113.61 72.6782 106.183 73.5985 102.668 76.1022C102.638 76.1236 102.62 76.1682 102.629 76.2109C102.639 76.2614 102.683 76.2925 102.729 76.2789C105.251 75.4498 107.756 75.4042 109.971 75.7255C113.521 76.2401 116.327 77.6963 117.283 78.3885C117.62 78.6322 118.026 78.8884 118.448 78.936C118.881 78.9836 119.323 78.8118 119.712 78.1943C119.841 77.9895 119.938 77.7866 120.008 77.5905C120.172 77.1264 120.192 76.7002 120.152 76.375C120.111 76.0362 119.999 75.7954 119.918 75.7255C119.908 75.7178 119.897 75.711 119.886 75.7051L119.885 75.7042L119.884 75.7032H119.883C119.643 75.5925 119.56 75.8828 119.56 75.8838L119.556 75.9012Z" fill="#4A4A4A"/>
<path fill-rule="evenodd" clip-rule="evenodd" d="M115.598 93.855L115.782 92.8923C115.949 85.2567 105.429 79.6078 99.6252 89.4784C98.3098 91.7162 99.803 92.536 101.257 93.2687C101.257 93.2687 103.049 88.775 106.581 87.565C110.112 86.3549 113.577 87.9167 115.598 93.855Z" fill="#959595"/>
<path fill-rule="evenodd" clip-rule="evenodd" d="M116.069 92.2852C114.969 89.1678 113.414 87.3676 111.734 86.5325C110.575 85.9574 109.358 85.8418 108.187 86.0712C107.026 86.2987 105.91 86.8674 104.944 87.6619C103.183 89.1118 101.91 91.3228 101.75 93.6024C101.74 93.7378 101.839 93.857 101.973 93.866C102.094 93.876 102.201 93.7911 102.226 93.6728C102.543 92.1687 103.501 90.7594 104.789 89.7528C105.766 88.9881 106.932 88.4555 108.151 88.2885C109.363 88.1214 110.631 88.3182 111.819 89.0053C113.204 89.8061 114.488 91.2822 115.462 93.6358C115.693 94.1964 115.866 94.7887 115.967 95.3846C116.065 95.9605 116.096 96.541 116.051 97.0954C116.039 97.2308 116.138 97.35 116.27 97.3626C116.395 97.3743 116.506 97.2859 116.528 97.1622C116.67 96.3975 116.695 95.5832 116.618 94.7688C116.539 93.9256 116.349 93.0779 116.069 92.2852Z" fill="#4A4A4A"/>
<path fill-rule="evenodd" clip-rule="evenodd" d="M114.265 90.7598C114.077 90.3241 113.875 89.9233 113.666 89.5474C112.763 88.6269 111.527 87.9751 110.105 87.7769C106.895 87.3287 103.962 89.359 103.555 92.3116C102.877 97.2239 109.083 99.3872 112.7 97.6435C113.378 97.2257 113.955 96.6748 114.386 96.0239C115.172 94.5311 115.016 92.4946 114.265 90.7598Z" fill="#4A4A4A"/>
<path fill-rule="evenodd" clip-rule="evenodd" d="M103.31 90.7032C103.525 90.4746 103.568 90.0437 103.404 89.7409C103.241 89.4407 102.933 89.3791 102.718 89.6078C102.716 89.6078 102.174 90.153 101.64 89.6367C101.418 89.4218 101.112 89.4997 100.959 89.8113C100.806 90.1216 100.861 90.55 101.083 90.7648C102.186 91.8301 103.308 90.707 103.31 90.7032Z" fill="#4A4A4A"/>
<path fill-rule="evenodd" clip-rule="evenodd" d="M102.396 91.1306C102.577 90.8955 102.743 90.6544 102.518 90.4664C102.292 90.2783 101.963 90.3153 101.781 90.5494C101.781 90.5504 101.335 91.1726 100.67 90.9615C100.393 90.8745 100.102 91.0376 100.018 91.3246C99.9342 91.6127 100.09 91.9178 100.366 92.0058C101.182 92.2659 101.819 91.9408 102.199 91.6367C102.454 91.4317 102.396 91.1316 102.396 91.1306Z" fill="#4A4A4A"/>
<path d="M101.109 95.6094C100.993 95.6094 100.892 95.4895 100.875 95.3228C100.856 95.1408 100.947 94.9721 101.076 94.9463C101.262 94.9094 101.368 94.7999 101.369 94.7985C101.473 94.6904 101.621 94.7169 101.7 94.8605C101.778 95.0042 101.763 95.2092 101.661 95.3221C101.641 95.3444 101.456 95.5438 101.142 95.6059C101.131 95.608 101.12 95.6094 101.109 95.6094Z" fill="#7F7F7F"/>
<path d="M102.318 97.3636C102.118 97.3636 101.922 97.2519 101.819 97.0568C101.669 96.7686 101.769 96.4084 102.042 96.2507C102.326 96.0867 102.447 95.8941 102.453 95.8854C102.618 95.6134 102.969 95.5265 103.231 95.6966C103.494 95.8656 103.583 96.2184 103.426 96.4978C103.4 96.545 103.15 96.9686 102.59 97.2903C102.503 97.34 102.41 97.3636 102.318 97.3636Z" fill="#7F7F7F"/>
<path fill-rule="evenodd" clip-rule="evenodd" d="M107.054 90.3472C107.538 90.3664 107.911 90.7752 107.889 91.2595C107.866 91.743 107.455 92.1199 106.971 92.0999C106.488 92.0807 106.113 91.6727 106.136 91.1884C106.159 90.7041 106.569 90.3272 107.054 90.3472Z" fill="white"/>
<path fill-rule="evenodd" clip-rule="evenodd" d="M131.489 55.7685C145.509 57.9729 153.192 70.3374 156.133 84.2064C154.485 68.1563 147.306 52.5434 132.272 50.1607C117.153 48.3792 105.974 61.457 99.9951 76.4542C106.621 63.906 117.396 54.0919 131.489 55.7685Z" fill="white"/>
<path d="M91.0563 100.186C90.8959 100.186 90.7417 100.095 90.6682 99.9383C86.9812 92.0574 87.7869 83.796 87.795 83.714C87.8201 83.4768 88.0334 83.3181 88.2655 83.3298C88.5003 83.3551 88.6706 83.567 88.6473 83.8032C88.6383 83.8826 87.8613 91.9149 91.4443 99.5713C91.5438 99.7868 91.4524 100.043 91.2382 100.145C91.18 100.173 91.1181 100.186 91.0563 100.186ZM138.266 133.218C138.103 133.218 137.946 133.124 137.875 132.964C137.778 132.748 137.874 132.492 138.089 132.394C162.239 121.444 168.669 96.4532 169.322 93.6399C169.376 93.4081 169.611 93.2639 169.837 93.3189C170.067 93.373 170.21 93.6047 170.156 93.8364C169.494 96.6921 162.966 122.06 138.442 133.18C138.384 133.206 138.325 133.218 138.266 133.218ZM142.448 146.484C120.151 146.484 102.604 133.83 102.382 133.666C102.351 133.644 102.323 133.619 102.301 133.59C99.1195 131.894 97.3826 130.52 97.319 130.468C97.1344 130.318 97.1057 130.047 97.2545 129.863C97.4032 129.678 97.6712 129.648 97.8567 129.798C98.0987 129.995 122.574 149.299 158.706 132.24C158.917 132.139 159.175 132.232 159.275 132.447C159.375 132.662 159.284 132.919 159.07 133.02C136.964 143.457 119.14 140.442 108.427 136.365C118.055 141.636 138.954 150.387 160.995 142.416C161.214 142.338 161.462 142.452 161.541 142.677C161.622 142.901 161.507 143.147 161.282 143.227C154.824 145.563 148.463 146.484 142.448 146.484Z" fill="#336D3D"/>
<path fill-rule="evenodd" clip-rule="evenodd" d="M89.4692 96.4865C87.3327 89.5525 87.9513 83.3292 87.9513 83.3292C86.7704 85.9678 85.8192 88.5087 85.0835 90.9596C86.5549 91.1041 88.2016 92.4014 89.4692 96.4865Z" fill="#336D3D"/>
<path fill-rule="evenodd" clip-rule="evenodd" d="M169.82 93.8551C169.238 96.4396 167.771 101.381 164.904 107.012C167.475 102.841 169.568 101.214 171.044 100.647C170.698 98.5335 170.286 96.2755 169.82 93.8551Z" fill="#336D3D"/>
<path fill-rule="evenodd" clip-rule="evenodd" d="M129.818 139.496C117.384 139.626 107.985 136.062 102.626 133.327C102.626 133.327 112.835 140.487 127.664 143.853C127.664 143.853 118.317 139.81 129.818 139.496Z" fill="#336D3D"/>
<path d="M107.345 104.451C111.724 104.628 116.107 102.435 119.115 98.6199C121.953 95.0202 122.947 90.6006 121.774 86.8004C120.967 84.1901 117.043 82.0819 111.531 81.2984C105.767 80.4804 98.8087 81.3233 96.6662 84.5201C94.463 87.8048 94.5345 92.589 96.8526 97.0041C99.1816 101.44 103.202 104.294 107.345 104.451ZM140.313 85.4473C136.443 85.4473 133.512 86.4385 132.336 88.2378C130.152 91.5811 129.88 96.0982 131.611 100.32C133.446 104.794 137.073 108.067 141.316 109.071C145.345 110.025 150.007 108.354 153.481 104.707C156.937 101.078 158.336 96.4939 157.128 92.7452C155.954 89.0976 149.495 86.4296 143.721 85.678C142.524 85.5228 141.382 85.4473 140.313 85.4473ZM143.612 110.521C142.737 110.521 141.874 110.424 141.031 110.225C136.409 109.13 132.467 105.593 130.489 100.763C129.094 97.3599 128.906 93.7673 129.887 90.6415C126.934 89.118 124.409 89.4978 123.461 89.7311C123.546 93.0105 122.368 96.4327 120.072 99.3448C116.826 103.464 112.06 105.815 107.299 105.636C102.721 105.463 98.3054 102.363 95.7764 97.5471C93.2591 92.7523 93.2121 87.5103 95.6542 83.868C98.1877 80.09 105.755 79.2808 111.705 80.1246C117.777 80.9879 121.974 83.3552 122.931 86.4571C123.14 87.1332 123.287 87.827 123.373 88.5315C124.611 88.2582 127.246 87.9903 130.299 89.5146C130.581 88.8474 130.92 88.205 131.318 87.5981C133.102 84.8688 137.8 83.711 143.88 84.5033C149.845 85.2788 156.895 88.0764 158.283 92.3867C159.621 96.5445 158.12 101.575 154.365 105.518C151.307 108.729 147.368 110.521 143.612 110.521Z" fill="white"/>
<path fill-rule="evenodd" clip-rule="evenodd" d="M137.747 86.5714C137.676 87.1401 137.763 87.4431 137.84 87.5932C138.037 86.8399 138.603 86.3942 139.396 86.1723C144.49 85.0954 151.568 88.2981 154.358 91.925H154.356C154.382 91.9576 154.386 92.008 154.366 92.049C154.341 92.0984 154.289 92.1152 154.25 92.0872C151.985 90.4724 149.525 89.6621 147.253 89.3144C143.609 88.7577 140.446 89.3889 139.314 89.8048C138.916 89.9512 138.446 90.0892 138.017 90.0081C137.577 89.9251 137.187 89.6155 136.97 88.865C136.898 88.617 136.859 88.3792 136.843 88.1592C136.806 87.6361 136.904 87.1942 137.031 86.8744C137.164 86.5425 137.339 86.3308 137.436 86.2833C137.45 86.2777 137.462 86.273 137.474 86.2711H137.476L137.478 86.2702H137.479C137.745 86.2301 137.748 86.5527 137.748 86.5537L137.747 86.5714Z" fill="#4A4A4A"/>
<path d="M152.118 103.504C152.042 103.504 151.963 103.495 151.891 103.475C151.262 103.305 150.976 103.067 150.945 103.04C150.799 102.913 150.873 102.746 151.11 102.667C151.347 102.589 151.652 102.627 151.801 102.753C151.809 102.758 151.979 102.892 152.346 102.991C152.596 103.058 152.696 103.221 152.57 103.355C152.481 103.449 152.303 103.504 152.118 103.504Z" fill="#7F7F7F"/>
<path d="M150.232 104.381C150.059 104.381 149.883 104.352 149.757 104.293C149.263 104.065 149.14 103.84 149.128 103.815C149.058 103.674 149.282 103.537 149.625 103.509C149.969 103.481 150.301 103.57 150.373 103.709C150.378 103.716 150.452 103.83 150.71 103.949C150.943 104.057 150.918 104.22 150.655 104.316C150.534 104.36 150.384 104.381 150.232 104.381Z" fill="#7F7F7F"/>
<path fill-rule="evenodd" clip-rule="evenodd" d="M135.362 97.9761L133.327 99.3753C134.704 89.5349 155.107 89.7631 151.266 99.5421C151.266 99.5421 149.843 101.172 148.392 100.823C146.941 100.473 136.866 97.3816 136.866 97.3816L135.362 97.9761Z" fill="#959595"/>
<path fill-rule="evenodd" clip-rule="evenodd" d="M142.675 100.24C139.579 98.8261 136.153 97.7348 133.488 99.3725C133.456 99.3988 133.411 99.4078 133.375 99.3906C133.329 99.3684 133.313 99.3118 133.34 99.2634C135.508 95.3832 141.343 96.157 145.322 98.0351C146.265 98.4806 147.134 98.9426 147.879 99.3397L148.27 99.5473C150.346 100.645 150.69 100.186 150.692 100.184C150.718 100.147 150.767 100.13 150.81 100.144C150.86 100.159 150.883 100.213 150.861 100.264C150.804 100.394 150.519 100.9 149.635 101.287C149.144 101.5 148.464 101.681 147.529 101.742C146.157 101.832 144.478 101.064 142.675 100.24Z" fill="#4A4A4A"/>
<path fill-rule="evenodd" clip-rule="evenodd" d="M147.936 99.9947C147.625 100.005 147.368 99.8227 147.361 99.5862C147.355 99.3503 147.602 99.1499 147.911 99.1393C147.912 99.1386 148.677 99.0981 148.893 98.5531C148.985 98.3258 149.298 98.1929 149.595 98.2569C149.891 98.3215 150.059 98.5567 149.968 98.784C149.518 99.9094 147.939 99.9947 147.936 99.9947Z" fill="#4A4A4A"/>
<path fill-rule="evenodd" clip-rule="evenodd" d="M148.886 100.617C148.521 100.558 148.167 100.484 148.251 100.194C148.334 99.9039 148.698 99.7155 149.063 99.7754C149.064 99.7754 149.998 99.9548 150.511 99.3593C150.724 99.112 151.148 99.0432 151.455 99.2066C151.763 99.37 151.839 99.7022 151.626 99.9495C150.996 100.682 150.098 100.853 149.478 100.872C149.059 100.884 148.887 100.617 148.886 100.617Z" fill="#4A4A4A"/>
<path fill-rule="evenodd" clip-rule="evenodd" d="M125.99 115.775C125.211 115.719 125.265 114.912 126.047 114.968C126.051 114.968 128.006 114.885 129.959 114.048C130.278 113.965 130.6 114.174 130.679 114.514C130.755 114.856 130.56 115.199 130.241 115.281C127.918 115.89 125.996 115.776 125.99 115.775Z" fill="#959595"/>
<path fill-rule="evenodd" clip-rule="evenodd" d="M119.049 112.456C118.179 112.267 118.218 111.343 119.086 111.535C119.115 111.541 129.295 113.853 132.973 108.198C133.185 107.875 133.604 107.792 133.911 108.014C134.218 108.238 134.297 108.681 134.085 109.004C129.893 115.447 119.08 112.464 119.049 112.456Z" fill="#959595"/>
<path fill-rule="evenodd" clip-rule="evenodd" d="M131.408 109.014C131.023 109.021 130.706 108.776 130.695 108.465C130.687 108.156 130.989 107.899 131.372 107.89C131.379 107.89 134.193 107.788 134.204 109.958C134.207 110.267 133.899 110.519 133.517 110.521C133.137 110.522 132.826 110.274 132.824 109.964C132.819 108.964 131.411 109.014 131.408 109.014Z" fill="#959595"/>
<path d="M74.9866 163.792C74.8636 163.792 74.7406 163.738 74.6553 163.635C74.5045 163.453 74.5314 163.182 74.7146 163.032L87.2596 152.721C87.4418 152.572 87.712 152.598 87.8637 152.78C88.0137 152.963 87.9876 153.233 87.8045 153.384L75.2586 163.695C75.1787 163.76 75.0826 163.792 74.9866 163.792ZM107.568 172.465C107.381 172.465 107.209 172.342 107.156 172.154C107.091 171.926 107.223 171.689 107.451 171.625L137.089 163.246L137.713 162.299C137.843 162.101 138.108 162.046 138.307 162.176C138.505 162.306 138.56 162.572 138.429 162.77L138.351 162.889L140.09 162.397C140.32 162.333 140.556 162.466 140.619 162.693C140.683 162.92 140.551 163.157 140.323 163.222L107.685 172.449C107.646 172.461 107.607 172.465 107.568 172.465ZM118.896 218.765C118.706 218.765 118.535 218.641 118.482 218.45C118.418 218.222 118.552 217.986 118.781 217.924C118.892 217.892 130.134 214.779 146.359 209.916C150.008 208.821 153.368 207.28 156.346 205.333C156.545 205.204 156.811 205.259 156.939 205.457C157.07 205.654 157.014 205.92 156.815 206.05C153.769 208.042 150.333 209.619 146.605 210.736C130.371 215.603 119.122 218.718 119.01 218.749C118.972 218.76 118.933 218.765 118.896 218.765ZM92.8731 255.251C89.9842 255.251 87.0046 255.15 83.9568 254.921C83.7207 254.903 83.5429 254.697 83.56 254.462C83.5788 254.224 83.797 254.044 84.0205 254.066C108.568 255.915 128.89 249.352 129.092 249.287C129.32 249.211 129.561 249.335 129.635 249.559C129.709 249.784 129.585 250.027 129.361 250.1C129.182 250.159 113.419 255.251 92.8731 255.251Z" fill="#336D3D"/>
<path fill-rule="evenodd" clip-rule="evenodd" d="M91.2246 254.499C100.484 257.048 110.979 263.934 119.292 251.795C119.308 251.774 119.08 251.681 118.705 251.807C108.034 255.421 91.0754 254.732 91.2246 254.499Z" fill="#336D3D"/>
<path fill-rule="evenodd" clip-rule="evenodd" d="M101.376 223.359C104.131 224.663 126.305 222.061 127.077 212.736C128.088 200.54 121.968 184.047 114.312 174.833C111.394 171.321 108.473 168.915 103.406 170.862C99.0279 172.543 86.5103 177.84 87.8091 177.604C95.0714 176.279 111.294 215.106 101.376 223.359Z" fill="#336D3D"/>
<path fill-rule="evenodd" clip-rule="evenodd" d="M70.3694 194.138C70.0743 186.335 68.9302 175.753 78.65 174.204C78.6889 174.197 78.7487 174.222 78.765 174.185C80.8134 169.691 84.1001 168.225 88.0476 169.924C88.0476 169.924 92.0774 165.349 95.6683 168.863C98.936 166.768 100.026 167.144 102.056 170.081C106.996 177.224 108.457 191.96 100.667 195.061C98.8536 195.783 96.5327 193.183 96.5327 193.183C93.9711 196.863 91.0356 198.397 89.2162 192.787H89.2153C89.2153 192.787 87.7344 194.442 86.1277 194.296C84.521 194.149 84.1191 193.007 84.1191 193.007C84.1191 193.007 79.92 195.011 79.127 190.416L74.8591 192.229L70.3694 194.138Z" fill="white"/>
<path fill-rule="evenodd" clip-rule="evenodd" d="M70.2919 193.85C70.2571 193.048 70.2116 192.215 70.1719 191.365C70.2193 191.415 70.2716 191.465 70.3316 191.512C70.4691 191.62 70.6424 191.721 70.8611 191.793C71.0712 191.862 71.3219 191.904 71.622 191.908C72.0731 191.911 72.6346 191.823 73.3355 191.589C74.866 191.075 76.5475 190.257 77.8699 189.55C78.5698 189.177 79.17 188.835 79.594 188.587C79.7044 189.691 79.8205 190.572 79.8205 190.572L79.7131 190.612C79.6947 190.531 79.6753 190.45 79.6579 190.365L75.0935 192.063L70.2919 193.85Z" fill="#959595"/>
<path d="M79.5099 190.275C79.3003 190.275 79.1196 190.115 79.0942 189.898C79.0854 189.811 78.9162 188.332 78.8039 186.786L75.6824 185.366C75.4719 185.27 75.3772 185.017 75.4711 184.803C75.5649 184.587 75.8149 184.491 76.0236 184.587L78.7434 185.824C78.7258 185.485 78.7127 185.157 78.7083 184.853C78.7048 184.618 78.889 184.423 79.1205 184.419C79.3731 184.434 79.5424 184.604 79.5468 184.839C79.5547 185.329 79.5836 185.891 79.6213 186.459C79.6231 186.467 79.6231 186.476 79.6231 186.485C79.7345 188.117 79.9239 189.777 79.9265 189.799C79.9528 190.033 79.7888 190.245 79.5599 190.272C79.5433 190.274 79.5266 190.275 79.5099 190.275ZM89.2857 192.586C89.176 192.586 89.0673 192.544 88.9857 192.459C88.8243 192.29 88.827 192.021 88.9927 191.855C91.4678 189.39 92.7544 185.701 92.6176 181.468C92.4694 176.935 90.6548 172.618 87.8806 170.198C87.7052 170.045 87.6841 169.776 87.835 169.597C87.985 169.417 88.2498 169.398 88.4261 169.551C91.3722 172.12 93.3 176.676 93.4543 181.44C93.6008 185.915 92.2238 189.83 89.5786 192.466C89.4962 192.546 89.3909 192.586 89.2857 192.586ZM84.3478 192.802C84.3127 192.802 84.2776 192.796 84.2426 192.787C84.0189 192.728 83.883 192.496 83.9408 192.268C86.708 181.325 78.9644 174.42 78.8863 174.352C78.7109 174.199 78.6907 173.929 78.8407 173.752C78.9907 173.573 79.2565 173.55 79.431 173.703C79.5134 173.776 87.6534 181.011 84.753 192.48C84.7039 192.673 84.5337 192.802 84.3478 192.802ZM96.3741 192.973C96.2943 192.973 96.2136 192.949 96.1425 192.901C95.9496 192.77 95.8978 192.506 96.0259 192.31C100.975 184.739 99.6061 174.207 95.2225 169.121C95.0699 168.943 95.0874 168.674 95.2611 168.518C95.4347 168.364 95.6996 168.38 95.8531 168.557C100.44 173.882 101.886 184.886 96.7231 192.783C96.6425 192.906 96.5091 192.973 96.3741 192.973Z" fill="#959595"/>
<path d="M175.898 129.254C175.822 129.254 175.746 129.234 175.675 129.192C175.472 129.068 175.408 128.804 175.531 128.601C179.969 121.287 177.209 113.743 177.182 113.667C177.098 113.445 177.209 113.197 177.432 113.112C177.654 113.028 177.903 113.141 177.986 113.364C178.108 113.688 180.919 121.378 176.266 129.046C176.185 129.18 176.044 129.254 175.898 129.254ZM164.02 130.334C163.881 130.334 163.745 130.267 163.662 130.143C163.53 129.947 163.582 129.678 163.78 129.546C173.253 123.192 173.469 114.71 169.325 94.0025C169.315 93.9539 169.314 93.9035 169.321 93.854C174.622 59.2324 157.527 39.7507 138.236 35.8005C120.534 32.1781 98.0124 41.7406 90.3917 71.3018C90.3323 71.5323 90.098 71.6673 89.8683 71.6124C89.6377 71.553 89.499 71.318 89.5585 71.0884C97.3197 40.9825 120.319 31.2515 138.408 34.9586C158.085 38.9862 175.532 58.7768 170.184 93.9089C174.064 113.315 174.734 123.235 164.259 130.261C164.185 130.311 164.102 130.334 164.02 130.334ZM110.987 130.533C110.913 130.533 110.839 130.513 110.769 130.473C101.591 125.05 95.9622 114.95 94.9209 102.033C94.8389 99.831 94.9227 97.4854 95.1722 95.0416C95.1965 94.8066 95.4163 94.631 95.6433 94.658C95.8793 94.6823 96.0522 94.8931 96.0279 95.1299C95.7838 97.5331 95.6991 99.8391 95.7793 101.982C96.7972 114.594 102.278 124.456 111.208 129.732C111.412 129.853 111.48 130.116 111.359 130.32C111.278 130.457 111.136 130.533 110.987 130.533ZM39.4998 138.97C39.3305 138.97 39.1694 138.869 39.1018 138.703C38.1693 136.428 37.2643 134.32 36.4248 132.364C32.0665 122.214 29.4197 116.05 33.8927 111.826C34.0163 110.533 35.0557 102.642 42.0069 101.162C44.0165 100.734 47.7377 100.088 51.3372 99.4627C54.1639 98.9711 56.8338 98.5074 58.2075 98.2282C64.2266 97.0027 65.8228 101.893 67.2325 106.207C67.437 106.831 67.6378 107.449 67.8504 108.039C67.9306 108.263 67.8153 108.509 67.591 108.59C67.3667 108.67 67.1208 108.553 67.0406 108.33C66.8253 107.731 66.6218 107.106 66.4146 106.473C65.0535 102.307 63.6402 98.0013 58.3805 99.071C56.9933 99.3529 54.3179 99.8184 51.484 100.31C47.8926 100.934 44.1787 101.579 42.1861 102.004C35.284 103.473 34.7425 111.965 34.7372 112.052C34.7309 112.164 34.6806 112.27 34.5968 112.346C30.4047 116.16 32.9687 122.133 37.2154 132.026C38.0575 133.985 38.9635 136.097 39.898 138.377C39.9878 138.597 39.8826 138.848 39.6623 138.939C39.6095 138.96 39.5547 138.97 39.4998 138.97ZM100.762 195.359C100.591 195.359 100.429 195.255 100.363 195.087C100.275 194.865 100.384 194.616 100.605 194.528C102.771 193.676 104.287 191.855 105.114 189.114C106.739 183.723 105.281 175.598 101.792 170.617C99.9617 167.998 99.1555 167.551 96.0189 169.535C95.8505 169.642 95.6325 169.619 95.4902 169.482C94.6407 168.661 93.7003 168.271 92.6761 168.3C90.4494 168.38 88.5442 170.481 88.5253 170.503C88.4028 170.64 88.2046 170.685 88.0352 170.612C84.2934 169.017 81.292 170.392 79.358 174.585C79.2823 174.75 79.0364 174.871 78.8598 174.851C74.2073 175.59 71.7058 178.548 71.0446 184.157C71.0158 184.393 70.8014 184.561 70.5654 184.534C70.3303 184.507 70.1609 184.292 70.1889 184.057C70.8879 178.132 73.6632 174.847 78.6743 174.016C80.7668 169.656 84.0988 168.137 88.0965 169.707C88.6982 169.108 90.4908 167.52 92.641 167.44C93.8003 167.404 94.8749 167.798 95.8388 168.635C98.987 166.701 100.335 167.034 102.498 170.123C106.119 175.297 107.631 183.748 105.938 189.363C105.046 192.326 103.31 194.39 100.921 195.329C100.869 195.35 100.816 195.359 100.762 195.359ZM44.593 230.343C44.5282 230.343 44.4633 230.329 44.4003 230.297C38.0342 227.102 36.4564 218.03 36.3927 217.644C36.353 217.41 36.5114 217.189 36.7456 217.15C36.9772 217.115 37.2021 217.269 37.2411 217.504C37.2566 217.593 38.815 226.531 44.7867 229.528C45.0002 229.634 45.0849 229.893 44.9786 230.105C44.9029 230.256 44.7507 230.343 44.593 230.343ZM157.773 299.108C157.565 299.108 157.381 298.957 157.349 298.743C154.312 279.127 140.908 265.227 140.773 265.089C140.606 264.92 140.609 264.647 140.78 264.481C140.949 264.315 141.221 264.318 141.388 264.488C141.525 264.628 155.121 278.726 158.199 298.613C158.235 298.846 158.075 299.067 157.841 299.102C157.817 299.106 157.795 299.108 157.773 299.108Z" fill="white"/>
<path fill-rule="evenodd" clip-rule="evenodd" d="M36.2832 94.1911C34.7159 95.0596 32.8257 94.8474 31.3746 93.8063C22.1109 87.1686 5.07831 72.1788 19.7992 64.02C34.5208 55.8611 37.9772 78.375 38.5872 89.8082C38.683 91.6009 37.8506 93.3217 36.2832 94.1911Z" fill="#71D561"/>
<path d="M25.6174 63.1204C23.9887 63.1204 22.1714 63.6703 20.2134 64.7557C16.8488 66.6214 15.0609 68.9704 14.8996 71.7379C14.4195 79.9459 27.7789 90.1833 31.8846 93.1254C33.0885 93.9885 34.6627 94.1253 35.8708 93.4566C37.1023 92.7744 37.8165 91.3983 37.7348 89.8665C37.3994 83.5917 35.5362 63.1204 25.6174 63.1204ZM34.1873 95.6094C33.0291 95.6094 31.8521 95.2224 30.8728 94.5195C25.3786 90.5838 12.656 80.4723 13.1725 71.6371C13.3703 68.245 15.4553 65.4244 19.3701 63.2545C21.5896 62.0251 23.6912 61.4005 25.6174 61.4005C36.7467 61.4005 39.0069 81.2436 39.4629 89.7747C39.58 91.968 38.5261 93.9534 36.7135 94.9578C35.9454 95.3844 35.0717 95.6094 34.1873 95.6094Z" fill="#ABE8A2"/>
<path fill-rule="evenodd" clip-rule="evenodd" d="M48.6482 88.5212C47.8039 88.3024 47.2188 87.6156 47.0709 86.7957C46.1217 81.5612 45.3326 71.0055 53.2604 73.0668C61.1882 75.1281 54.6664 83.7832 50.9548 87.8049C50.3725 88.4363 49.4926 88.7409 48.6482 88.5212Z" fill="#71D561"/>
<path d="M51.3876 73.6365C50.3522 73.6365 49.5491 73.9777 48.9344 74.6808C47.3114 76.5312 46.9504 81.0119 47.969 86.666C48.0642 87.189 48.4196 87.5911 48.8981 87.7165C49.3803 87.8428 49.9241 87.6628 50.2925 87.2589C51.896 85.5106 57.043 79.5404 55.9694 76.1057C55.6345 75.0319 54.6719 74.3002 53.0256 73.8703C52.4314 73.7144 51.8811 73.6365 51.3876 73.6365ZM49.2171 89.4692C48.9503 89.4692 48.6863 89.4352 48.4298 89.368C47.276 89.0671 46.4262 88.1428 46.2136 86.957C45.5522 83.2922 44.8508 76.6807 47.5707 73.5792C48.9307 72.0262 50.9492 71.5542 53.4938 72.2197C55.7502 72.8099 57.1577 73.9518 57.6763 75.614C58.93 79.6264 54.4266 85.3404 51.6301 88.39C51.0024 89.0752 50.1219 89.4692 49.2171 89.4692Z" fill="#ABE8A2"/>
<path fill-rule="evenodd" clip-rule="evenodd" d="M24.5092 103.377C24.7373 102.117 24.1841 100.886 23.183 100.142C16.7958 95.3866 3.22103 87.2754 1.07791 99.0993C-1.06485 110.922 14.486 108.129 22.1331 105.934C23.332 105.591 24.2811 104.635 24.5092 103.377Z" fill="#71D561"/>
<path d="M7.48098 93.8678C4.38276 93.8678 2.55491 95.6329 1.89472 99.264C1.47744 101.562 1.76857 103.355 2.76114 104.59C4.04448 106.189 6.53735 107 10.1713 107H10.1724C14.5549 107 19.4146 105.796 21.9221 105.079C22.8522 104.813 23.5298 104.097 23.6912 103.21C23.8514 102.33 23.4725 101.43 22.7036 100.859C19.8721 98.7573 12.7219 93.8678 7.48098 93.8678ZM10.1724 108.767C10.1713 108.767 10.1713 108.767 10.1713 108.767C6.00438 108.767 3.06838 107.74 1.44568 105.718C0.112684 104.058 -0.301378 101.776 0.215484 98.9376C1.24196 93.2871 4.73366 92.1008 7.48098 92.1008C13.0119 92.1008 20.0171 96.6898 23.7011 99.4249C25.0147 100.399 25.6551 101.975 25.3709 103.538C25.0878 105.092 23.9411 106.335 22.3783 106.781C19.7871 107.523 14.7562 108.767 10.1724 108.767Z" fill="#ABE8A2"/>
<path fill-rule="evenodd" clip-rule="evenodd" d="M315.921 80.8054C314.429 79.7988 313.785 78.0412 314.096 76.3093C316.066 65.2692 322.241 43.7615 336.254 53.2162C350.266 62.6692 331.167 75.458 320.959 80.9421C319.36 81.8023 317.413 81.8129 315.921 80.8054Z" fill="#71D561"/>
<path d="M329.68 51.697C320.117 51.697 315.994 70.6602 314.959 76.4726C314.696 77.9444 315.256 79.3468 316.422 80.1356C317.574 80.9146 319.205 80.9422 320.535 80.2263C325.072 77.7843 339.904 69.1947 340.327 61.1591C340.468 58.4814 338.929 56.0359 335.754 53.89C333.601 52.4351 331.557 51.697 329.68 51.697ZM318.489 82.4521C317.375 82.4521 316.314 82.1329 315.422 81.5291C313.691 80.3597 312.852 78.3107 313.233 76.1827C314.637 68.3107 319.046 49.9976 329.68 49.9976C331.922 49.9976 334.304 50.838 336.755 52.4956C340.459 54.9999 342.25 57.9443 342.077 61.2453C341.621 69.9123 327.454 78.445 321.384 81.7114C320.486 82.196 319.484 82.4521 318.489 82.4521Z" fill="#ABE8A2"/>
<path fill-rule="evenodd" clip-rule="evenodd" d="M326.334 89.1974C326.181 88.3837 326.548 87.5876 327.214 87.1054C331.468 84.0204 340.509 78.7583 341.952 86.405C343.395 94.0491 333.023 92.2611 327.921 90.8499C327.122 90.63 326.488 90.0121 326.334 89.1974Z" fill="#71D561"/>
<path d="M337.693 83.2773C334.271 83.2773 329.552 86.436 327.682 87.7943C327.257 88.1026 327.047 88.583 327.135 89.0492C327.223 89.5224 327.601 89.9048 328.121 90.0483C329.776 90.5073 332.983 91.2756 335.873 91.2756C338.196 91.2756 339.844 90.7658 340.636 89.8005C341.245 89.0617 341.419 87.9698 341.153 86.5581C340.731 84.3201 339.632 83.2773 337.693 83.2773ZM335.873 92.9779C332.785 92.9779 329.41 92.1713 327.673 91.6909C326.526 91.3736 325.683 90.4832 325.472 89.3665C325.262 88.2443 325.728 87.1124 326.693 86.4128C329.181 84.6062 333.92 81.575 337.693 81.575C339.628 81.575 342.088 82.3833 342.814 86.2408C343.179 88.1748 342.885 89.7381 341.939 90.887C340.798 92.2747 338.756 92.9779 335.873 92.9779Z" fill="#ABE8A2"/>
<path fill-rule="evenodd" clip-rule="evenodd" d="M302.211 74.4502C303.406 74.119 304.232 73.0875 304.44 71.8569C305.77 64.001 306.861 48.1625 295.642 51.2743C284.423 54.387 293.679 67.3553 298.944 73.3816C299.769 74.3262 301.016 74.7813 302.211 74.4502Z" fill="#71D561"/>
<path d="M298.317 51.7263C297.574 51.7263 296.748 51.8513 295.862 52.0959C293.369 52.7861 291.904 53.9764 291.385 55.7337C289.804 61.0855 297.268 70.1638 299.592 72.8189C300.224 73.5399 301.16 73.857 302.001 73.6278C302.84 73.3959 303.459 72.664 303.619 71.7201C304.165 68.5034 305.672 57.6768 302.126 53.4356C301.164 52.2852 299.918 51.7263 298.317 51.7263ZM301.434 75.4349C300.264 75.4349 299.125 74.8996 298.307 73.9657C295.137 70.3459 287.957 61.2757 289.74 55.2401C290.433 52.8957 292.34 51.2761 295.409 50.4264C298.871 49.4689 301.599 50.1211 303.437 52.3196C307.349 57.0001 306.051 67.6501 305.311 72.0118C305.037 73.626 303.942 74.886 302.455 75.2964C302.123 75.3888 301.78 75.4349 301.434 75.4349Z" fill="#ABE8A2"/>
<path fill-rule="evenodd" clip-rule="evenodd" d="M30.7525 77.8763C30.1927 78.1815 29.5171 78.1067 28.9994 77.7399C25.6906 75.4081 19.6073 70.1428 24.8647 67.2752C30.1227 64.4095 31.3571 72.3189 31.5747 76.3361C31.6095 76.965 31.3125 77.5702 30.7525 77.8763Z" fill="#ABE8A2"/>
<path fill-rule="evenodd" clip-rule="evenodd" d="M32.4544 82.4521C33.4215 82.4521 34.2088 81.8617 34.2088 81.1368C34.2088 80.412 33.4215 79.8207 32.4544 79.8207C31.4887 79.8207 30.7002 80.412 30.7002 81.1368C30.7002 81.8617 31.4887 82.4521 32.4544 82.4521Z" fill="#ABE8A2"/>
<path fill-rule="evenodd" clip-rule="evenodd" d="M322.607 65.503C323.143 65.876 323.84 65.8697 324.408 65.5484C328.033 63.5037 334.804 58.7411 329.762 55.2462C324.721 51.7504 322.598 59.7375 321.938 63.8368C321.834 64.4793 322.07 65.1318 322.607 65.503Z" fill="white"/>
<path fill-rule="evenodd" clip-rule="evenodd" d="M321.219 67.5478C320.256 67.4722 319.394 67.9961 319.292 68.719C319.19 69.4419 319.89 70.0892 320.854 70.1647C321.818 70.2403 322.68 69.7164 322.781 68.9944C322.882 68.2707 322.184 67.6234 321.219 67.5478Z" fill="white"/>
<path fill-rule="evenodd" clip-rule="evenodd" d="M144.73 1.28746e-05C144.73 1.93739 146.3 3.50766 148.238 3.50766C146.3 3.50766 144.73 5.07984 144.73 7.01721C144.73 5.07984 143.159 3.50766 141.221 3.50766C143.159 3.50766 144.73 1.93739 144.73 1.28746e-05Z" fill="white"/>
<path fill-rule="evenodd" clip-rule="evenodd" d="M155.256 20.1744C155.256 21.3851 156.041 22.3668 157.01 22.3668C156.041 22.3668 155.256 23.3495 155.256 24.5602C155.256 23.3495 154.47 22.3668 153.501 22.3668C154.47 22.3668 155.256 21.3851 155.256 20.1744Z" fill="white"/>
<path fill-rule="evenodd" clip-rule="evenodd" d="M19.7365 155.256C19.7365 157.193 21.1107 158.764 22.8058 158.764C21.1107 158.764 19.7365 160.334 19.7365 162.273C19.7365 160.334 18.3616 158.764 16.6658 158.764C18.3616 158.764 19.7365 157.193 19.7365 155.256Z" fill="white"/>
<path fill-rule="evenodd" clip-rule="evenodd" d="M333.756 145.607C333.756 147.544 335.13 149.114 336.826 149.114C335.13 149.114 333.756 150.686 333.756 152.624C333.756 150.686 332.381 149.114 330.686 149.114C332.381 149.114 333.756 147.544 333.756 145.607Z" fill="white"/>
<path fill-rule="evenodd" clip-rule="evenodd" d="M182.885 250.865C182.885 252.56 184.26 253.935 185.956 253.935C184.26 253.935 182.885 255.309 182.885 257.005C182.885 255.309 181.51 253.935 179.816 253.935C181.51 253.935 182.885 252.56 182.885 250.865Z" fill="white"/>
<path fill-rule="evenodd" clip-rule="evenodd" d="M197.358 -5.45979e-05C197.358 0.968314 198.143 1.75426 199.113 1.75426C198.143 1.75426 197.358 2.53942 197.358 3.50854C197.358 2.53942 196.573 1.75426 195.604 1.75426C196.573 1.75426 197.358 0.968314 197.358 -5.45979e-05Z" fill="white"/>
<path fill-rule="evenodd" clip-rule="evenodd" d="M21.0512 135.081C21.0512 136.292 21.8371 137.273 22.806 137.273C21.8371 137.273 21.0512 138.256 21.0512 139.467C21.0512 138.256 20.2659 137.273 19.2974 137.273C20.2659 137.273 21.0512 136.292 21.0512 135.081Z" fill="white"/>
<path fill-rule="evenodd" clip-rule="evenodd" d="M338.141 126.31C338.141 127.521 339.123 128.502 340.334 128.502C339.123 128.502 338.141 129.485 338.141 130.695C338.141 129.485 337.159 128.502 335.948 128.502C337.159 128.502 338.141 127.521 338.141 126.31Z" fill="white"/>
<path fill-rule="evenodd" clip-rule="evenodd" d="M273.232 122.801C273.232 124.012 274.214 124.993 275.425 124.993C274.214 124.993 273.232 125.976 273.232 127.187C273.232 125.976 272.25 124.993 271.039 124.993C272.25 124.993 273.232 124.012 273.232 122.801Z" fill="white"/>
<path fill-rule="evenodd" clip-rule="evenodd" d="M158.765 250.865C158.765 252.075 159.549 253.057 160.518 253.057C159.549 253.057 158.765 254.039 158.765 255.251C158.765 254.039 157.979 253.057 157.01 253.057C157.979 253.057 158.765 252.075 158.765 250.865Z" fill="white"/>
<path fill-rule="evenodd" clip-rule="evenodd" d="M175.869 281.565C175.869 282.777 176.851 283.758 178.062 283.758C176.851 283.758 175.869 284.739 175.869 285.951C175.869 284.739 174.886 283.758 173.676 283.758C174.886 283.758 175.869 282.777 175.869 281.565Z" fill="white"/>
</svg>
